<svg id="Layer_1" data-name="Layer 1" xmlns="http://www.w3.org/2000/svg" viewBox="0 0 319.48 344.23"><defs><style>.cls-1{fill:#939598;}.cls-2{fill:#f8efe2;}.cls-3{fill:#be2326;}.cls-4{fill:#00a661;}.cls-5{fill:#be1e2d;}.cls-6{fill:#ed1c24;}.cls-7{fill:#f6d8cf;}.cls-8{fill:#f5949b;opacity:0.5;}.cls-9{fill:#f2e4d1;}.cls-10{fill:#414042;}.cls-11{fill:#231f20;}</style></defs><title>Text</title><path class="cls-1" d="M255.48,68.24H66a4.35,4.35,0,1,1,0-8.69H255.48a4.35,4.35,0,1,1,0,8.69Z"/><path class="cls-2" d="M159.2,106.18a6.18,6.18,0,0,1-1.69-.25,11.87,11.87,0,0,1-2.5-1.1A5.87,5.87,0,0,1,152.85,97a5.87,5.87,0,0,1-1.48-8,11.26,11.26,0,0,1,1.77-2.06,5.86,5.86,0,0,1,8.14.18,5.86,5.86,0,0,1,8.09.89,10.7,10.7,0,0,1,1.47,2.28,5.85,5.85,0,0,1,.6,2.45,5.93,5.93,0,0,1,.53,2.46,11.15,11.15,0,0,1-.33,2.7,5.86,5.86,0,0,1-6.89,4.33A5.88,5.88,0,0,1,159.2,106.18Z"/><path class="cls-3" d="M194.83,145.61l-14.33-9.83c4.63-6.77,17.41-25.93,20.82-33.26,3.32-7.13,8-27.55,9.58-34.82l17,3.6c-.61,2.87-6.08,28.36-10.83,38.55C212.45,119.81,196.62,143,194.83,145.61Z"/><path class="cls-3" d="M126.65,145.61,141,135.78c-4.64-6.77-17.42-25.93-20.83-33.26-3.32-7.13-8-27.55-9.58-34.82l-17,3.6c.6,2.87,6.08,28.36,10.82,38.55C109,119.81,124.86,143,126.65,145.61Z"/><rect class="cls-4" x="251.82" y="36.71" width="62.88" height="52.02"/><rect class="cls-5" x="272.24" y="36.71" width="19.41" height="52.02"/><path class="cls-5" d="M275.06,26.3h0A11,11,0,0,0,257.7,34h0A11,11,0,0,0,273.08,45.2h0A11,11,0,0,0,275.06,26.3Z"/><path class="cls-5" d="M293.44,28.23h0a11,11,0,0,1,15.37,11.16h0a11,11,0,0,1-17.35,7.73h0A11,11,0,0,1,293.44,28.23Z"/><circle class="cls-6" cx="282.99" cy="36.33" r="6.49"/><rect class="cls-4" x="6.79" y="36.71" width="62.88" height="52.02"/><rect class="cls-5" x="27.21" y="36.71" width="19.41" height="52.02"/><path class="cls-5" d="M30,26.3h0A11,11,0,0,0,12.67,34h0A11,11,0,0,0,28.05,45.2h0A11,11,0,0,0,30,26.3Z"/><path class="cls-5" d="M48.4,28.23h0A11,11,0,0,1,63.78,39.39h0a11,11,0,0,1-17.35,7.73h0A11,11,0,0,1,48.4,28.23Z"/><circle class="cls-6" cx="37.96" cy="36.33" r="6.49"/><circle class="cls-3" cx="160.74" cy="184.11" r="53.02"/><circle class="cls-7" cx="160.74" cy="123.91" r="20.78"/><circle class="cls-8" cx="151.45" cy="126.76" r="4.39"/><circle class="cls-8" cx="170.03" cy="126.76" r="4.39"/><path class="cls-2" d="M181.25,128.21c-4.2,4.22-11.81,7-20.51,7s-16.3-2.81-20.5-7a31.71,31.71,0,1,0,41,0Z"/><path class="cls-9" d="M155.17,131.37h-9.86c-1.41,0-2,0-2-.83s.83-.33.83-.33-.1-.89-1.27-.93-2.2,1.73-.54,4.52c1,1.61,4,5.8,7.75,7s7.93-.1,8.85-1.12a5,5,0,0,0-3.72-8.33Z"/><path class="cls-9" d="M166.25,131.37h9.85c1.41,0,2.05,0,2.05-.83s-.84-.33-.84-.33a1.18,1.18,0,0,1,1.27-.93c1.17-.05,2.21,1.73.54,4.52-1,1.61-4,5.8-7.75,7s-7.93-.1-8.85-1.12a5,5,0,0,1,3.73-8.33Z"/><path class="cls-2" d="M155.16,129.19h-11c-1.57,0-2.28,0-2.28-.93s.94-.37.94-.37a1.34,1.34,0,0,0-1.43-1c-1.3,0-2.46,1.94-.6,5.05,1.08,1.8,4.42,6.49,8.66,7.84s8.87-.1,9.89-1.25a5.58,5.58,0,0,0-4.16-9.3Z"/><path class="cls-2" d="M166.33,129.19h11c1.58,0,2.28,0,2.28-.93s-.93-.37-.93-.37a1.32,1.32,0,0,1,1.42-1c1.31,0,2.46,1.94.6,5.05-1.08,1.8-4.42,6.49-8.66,7.84s-8.86-.1-9.88-1.25a5.52,5.52,0,0,1-1.43-3.72A5.58,5.58,0,0,1,166.33,129.19Z"/><circle class="cls-7" cx="100.99" cy="63.89" r="8.75"/><circle class="cls-7" cx="220.5" cy="63.89" r="8.75"/><path class="cls-3" d="M160.74,110.37c9.71,0,18.07,3,21.86,7.24,0-.51.06-1,.06-1.53a21.92,21.92,0,1,0-43.83,0q0,.77.06,1.53C142.67,113.34,151,110.37,160.74,110.37Z"/><path class="cls-2" d="M138.89,121a5.86,5.86,0,0,1-4.39-9.76c.21-.23.43-.47.66-.7a5.87,5.87,0,0,1,8.35,8.24l-.23.25A5.85,5.85,0,0,1,138.89,121Z"/><path class="cls-2" d="M146.27,116.25a5.86,5.86,0,0,1-2.13-11.33c.45-.18.92-.35,1.38-.51a5.87,5.87,0,0,1,5,.56,5.86,5.86,0,0,1,4.23-2.61l1.38-.14a5.85,5.85,0,0,1,4.62,1.64,5.84,5.84,0,0,1,4.61-1.64l1.39.14A5.86,5.86,0,0,1,171,105a5.83,5.83,0,0,1,5-.56c.47.16.93.33,1.37.5a5.87,5.87,0,1,1-4.25,10.94l-.94-.35a5.78,5.78,0,0,1-3-2.32,5.87,5.87,0,0,1-3.77.83l-1.06-.1a5.89,5.89,0,0,1-3.58-1.65,5.89,5.89,0,0,1-3.58,1.65l-1.06.1a5.87,5.87,0,0,1-3.77-.83,5.86,5.86,0,0,1-3,2.33l-.93.34A5.91,5.91,0,0,1,146.27,116.25Z"/><path class="cls-2" d="M182.6,121a5.84,5.84,0,0,1-4.39-2l-.23-.25a5.87,5.87,0,0,1,8.35-8.24l.65.7A5.86,5.86,0,0,1,182.6,121Z"/><path class="cls-10" d="M165.27,122.08h-.08a.65.65,0,0,1-.56-.73,4.22,4.22,0,0,1,8.17-.91.65.65,0,0,1-.39.83.66.66,0,0,1-.84-.39,2.92,2.92,0,0,0-5.65.63A.65.65,0,0,1,165.27,122.08Z"/><path class="cls-10" d="M156.21,122.08a.66.66,0,0,1-.65-.57,2.92,2.92,0,0,0-5.65-.63.65.65,0,0,1-1.23-.44,4.23,4.23,0,0,1,8.18.91.65.65,0,0,1-.57.73Z"/><path class="cls-3" d="M126.66,318.32l-26.06-.64c0-.29.7-29.17,0-48.1-.39-10.76,4.24-23.94,13.78-39.17a176.55,176.55,0,0,1,13.44-18.62l19.9,16.85c-9,10.62-21.43,30.05-21.07,40C127.39,288.36,126.69,317.11,126.66,318.32Z"/><path class="cls-11" d="M100.06,295.84a28.33,28.33,0,0,0-28.34,28.33h56.67A28.33,28.33,0,0,0,100.06,295.84Z"/><path class="cls-3" d="M194.82,318.32l26.07-.64c0-.29-.71-29.17,0-48.1.39-10.76-4.25-23.94-13.79-39.17a177.32,177.32,0,0,0-13.43-18.62l-19.91,16.85c9,10.62,21.43,30.05,21.07,40C194.09,288.36,194.79,317.11,194.82,318.32Z"/><path class="cls-11" d="M221.43,295.84a28.33,28.33,0,0,1,28.33,28.33H193.09A28.33,28.33,0,0,1,221.43,295.84Z"/></svg>