<svg id="Layer_1" data-name="Layer 1" xmlns="http://www.w3.org/2000/svg" viewBox="0 0 319.48 344.23"><defs><style>.cls-1{fill:none;stroke:#be2326;stroke-miterlimit:10;stroke-width:3px;}.cls-2{fill:#414042;}.cls-3{fill:#9d191b;}.cls-4{fill:#e6e7e8;}.cls-5{fill:#231f20;}.cls-6{fill:#fbb040;}.cls-7{fill:#c38558;}.cls-8{fill:#fff;}.cls-9{fill:#8dc63f;}.cls-10{fill:#09add8;}.cls-11{fill:#be2326;}.cls-12{fill:#a7a9ac;}.cls-13{fill:#d1d3d4;}.cls-14{fill:#be1e2d;}.cls-15{fill:#ed1c24;}.cls-16{fill:#d3b588;}.cls-17{fill:#603913;}.cls-18{fill:#00acd7;}.cls-19{fill:#16505e;}.cls-20{fill:#00a661;}</style></defs><title>Christmas tool illustration_111218</title><polyline class="cls-1" points="2.99 199.49 45.74 74.42 88.49 199.49"/><polyline class="cls-1" points="231.08 199.49 273.83 74.42 316.58 199.49"/><path class="cls-2" d="M244.86,153.42c2.79,0,2.58,5,2.58,5l6,6.1s5.09-10.72,5.89-13.19,1.29-9.34,1.29-9.34l-1.22-11.76s-6.66-2.57-8.54-3.7-13.73-12.61-15.47-14.66-4.51-3.18-3.86-3.71,2,.53,2.21.29-.76-1.21-.76-2.06.4-2,1.29-2.09a1.89,1.89,0,0,1,1.93,1.29l.8,4s12.84,10,16.27,11.76a32.65,32.65,0,0,0,8.86,2.46S259,118,260.16,115.4a6,6,0,0,1,6.28-3.86,6.88,6.88,0,0,1,4.73,3.38,6,6,0,0,1,.7,3.87,14,14,0,0,0,0,2.2,13,13,0,0,0,4.29-.75c1.72-.76,4.51-4.41,5.1-6.13s2.26-9.82,2.26-9.82a42.72,42.72,0,0,1-1.77-4.51,2.75,2.75,0,0,1,1.77-2.26c.75-.11,2.52.11,2.9,1.29s.4,2.26.73,3.2c1,0,1-1.75,1.68-1.75s-.21,2.58-.21,2.58l-2,1.93-1.93,12.63-4.16,12.18L280,146.33l1.14,6.25s8.2,16.73,9.82,20.28,10.32,17,10.32,17,5.37-.59,5.37.65-4.78,6.6-7.57,6.12-13.69-18.36-13.69-18.36-13-17.35-15.74-17.67-10.73,15.14-14.17,15.57-11-11.44-11-11.44-3.44,4.19-5.48,3.23-2.66-5.06-1.13-7.41S242.07,153.42,244.86,153.42Z"/><path class="cls-3" d="M257.94,115.82s-2.17-6-1.13-7,8.67-6.32,10.3-6.72,11.28,6.54,11.28,6.54-5.63-.1-6,.93-1,2.26-1,2.26Z"/><circle class="cls-4" cx="259.1" cy="116.17" r="2.73"/><circle class="cls-4" cx="263.16" cy="115.18" r="2.73"/><circle class="cls-4" cx="266.99" cy="114.25" r="2.73"/><circle class="cls-4" cx="270.6" cy="113.37" r="2.73"/><circle class="cls-4" cx="269.44" cy="115.56" r="1.21"/><circle class="cls-4" cx="260.82" cy="114.35" r="1.21"/><circle class="cls-4" cx="260.87" cy="117.3" r="1.21"/><circle class="cls-4" cx="265.19" cy="116.41" r="1.21"/><circle class="cls-4" cx="271.83" cy="111.51" r="1.21"/><circle class="cls-4" cx="257.52" cy="114.8" r="1.21"/><circle class="cls-4" cx="265.07" cy="113.47" r="1.21"/><circle class="cls-4" cx="257.27" cy="117.7" r="1.21"/><circle class="cls-4" cx="272.65" cy="113.95" r="1.21"/><circle class="cls-4" cx="278.1" cy="108.91" r="2.73"/><circle class="cls-4" cx="279.83" cy="107.08" r="1.21"/><circle class="cls-4" cx="279.88" cy="110.04" r="1.21"/><circle class="cls-4" cx="276.53" cy="107.54" r="1.21"/><circle class="cls-4" cx="276.28" cy="110.44" r="1.21"/><path class="cls-3" d="M300.15,193c.59-.39,1-1.67,1.23-3.24l-.17,0s-8.72-13.42-10.33-17-9.81-20.28-9.81-20.28l-1.14-6.24.48-16.76,4.15-12.18,2.72-9.85L283.07,106c-.52,2.48-1.47,6.88-1.89,8.09-.59,1.72-3.38,5.37-5.1,6.12a10.24,10.24,0,0,1-2.89.67,8.17,8.17,0,0,1-12.64,2.68,28.11,28.11,0,0,1-7.4-2.22c-2.59-1.34-10.53-7.35-14.27-10.22L236.17,114a156.15,156.15,0,0,0,14.57,12.56c1.87,1.13,8.53,3.71,8.53,3.71L260.5,142s-.48,6.87-1.29,9.34-5.9,13.18-5.9,13.18l-6-6.09v0a7.84,7.84,0,0,0-3.21,1.66c-.87.94-.59,3.22-.13,5.18.28-.31.44-.51.44-.51s7.52,11.87,11,11.44,11.49-15.9,14.17-15.57,15.73,17.66,15.73,17.66,6.22,10.19,10.46,15.39C297.6,193.69,299.33,193.6,300.15,193Z"/><circle class="cls-4" cx="270.08" cy="138.89" r="2.73"/><circle class="cls-4" cx="269.43" cy="134.76" r="2.73"/><circle class="cls-4" cx="268.83" cy="130.88" r="2.73"/><circle class="cls-4" cx="268.25" cy="127.2" r="2.73"/><circle class="cls-4" cx="270.34" cy="128.54" r="1.21"/><circle class="cls-4" cx="268.41" cy="137.02" r="1.21"/><circle class="cls-4" cx="271.35" cy="137.22" r="1.21"/><circle class="cls-4" cx="270.83" cy="132.85" r="1.21"/><circle class="cls-4" cx="266.5" cy="125.81" r="1.21"/><circle class="cls-4" cx="268.58" cy="140.35" r="1.21"/><circle class="cls-4" cx="267.89" cy="132.71" r="1.21"/><circle class="cls-4" cx="271.45" cy="140.84" r="1.21"/><circle class="cls-4" cx="269.01" cy="125.2" r="1.21"/><circle class="cls-4" cx="269.97" cy="154.57" r="2.73"/><circle class="cls-4" cx="269.92" cy="150.39" r="2.73"/><circle class="cls-4" cx="269.87" cy="146.45" r="2.73"/><circle class="cls-4" cx="269.83" cy="142.74" r="2.73"/><circle class="cls-4" cx="271.71" cy="144.36" r="1.21"/><circle class="cls-4" cx="268.58" cy="152.48" r="1.21"/><circle class="cls-4" cx="271.47" cy="153.1" r="1.21"/><circle class="cls-4" cx="271.57" cy="148.7" r="1.21"/><circle class="cls-4" cx="268.29" cy="141.11" r="1.21"/><circle class="cls-4" cx="268.28" cy="155.8" r="1.21"/><circle class="cls-4" cx="268.69" cy="148.14" r="1.21"/><circle class="cls-4" cx="271.05" cy="156.69" r="1.21"/><circle class="cls-4" cx="270.86" cy="140.87" r="1.21"/><circle class="cls-4" cx="258.13" cy="158.39" r="2.73"/><circle class="cls-4" cx="262.3" cy="158.04" r="2.73"/><circle class="cls-4" cx="266.22" cy="157.71" r="2.73"/><circle class="cls-4" cx="269.92" cy="157.41" r="2.73"/><circle class="cls-4" cx="268.44" cy="159.39" r="1.21"/><circle class="cls-4" cx="260.12" cy="156.85" r="1.21"/><circle class="cls-4" cx="259.71" cy="159.78" r="1.21"/><circle class="cls-4" cx="264.11" cy="159.57" r="1.21"/><circle class="cls-4" cx="271.43" cy="155.76" r="1.21"/><circle class="cls-4" cx="256.79" cy="156.79" r="1.21"/><circle class="cls-4" cx="264.45" cy="156.65" r="1.21"/><circle class="cls-4" cx="256.09" cy="159.61" r="1.21"/><circle class="cls-4" cx="271.86" cy="158.3" r="1.21"/><circle class="cls-4" cx="246.98" cy="159.56" r="2.73"/><circle class="cls-4" cx="244.95" cy="163.22" r="2.73"/><circle class="cls-4" cx="247.15" cy="162.07" r="1.21"/><circle class="cls-4" cx="244.95" cy="160.1" r="1.21"/><circle class="cls-4" cx="243.7" cy="165.06" r="1.21"/><circle class="cls-4" cx="249.06" cy="158.3" r="1.21"/><circle class="cls-4" cx="244.91" cy="165.78" r="1.21"/><circle class="cls-4" cx="249.52" cy="160.1" r="1.21"/><circle class="cls-4" cx="296.58" cy="193.16" r="2.73"/><circle class="cls-4" cx="299.82" cy="190.43" r="2.73"/><circle class="cls-4" cx="297.68" cy="190.9" r="1.21"/><circle class="cls-4" cx="298.61" cy="193.71" r="1.21"/><circle class="cls-4" cx="300.27" cy="192.74" r="1.21"/><circle class="cls-4" cx="300.51" cy="187.77" r="1.21"/><circle class="cls-4" cx="294.67" cy="192.32" r="1.21"/><circle class="cls-4" cx="301.48" cy="188.81" r="1.21"/><circle class="cls-4" cx="295.29" cy="195.16" r="1.21"/><circle class="cls-4" cx="237.62" cy="113.53" r="2.73"/><circle class="cls-4" cx="240.92" cy="112.1" r="1.21"/><circle class="cls-4" cx="237.84" cy="111.03" r="1.21"/><circle class="cls-4" cx="239.72" cy="113.31" r="1.21"/><circle class="cls-4" cx="235.54" cy="113.45" r="1.21"/><circle class="cls-4" cx="239.7" cy="110.89" r="1.21"/><circle class="cls-4" cx="237.15" cy="115.87" r="1.21"/><circle class="cls-4" cx="284.74" cy="106.92" r="2.73"/><circle class="cls-4" cx="287.57" cy="109.13" r="1.21"/><circle class="cls-4" cx="287.03" cy="105.9" r="1.21"/><circle class="cls-4" cx="285.93" cy="108.65" r="1.21"/><circle class="cls-4" cx="283.81" cy="105.04" r="1.21"/><circle class="cls-4" cx="288.05" cy="107.47" r="1.21"/><circle class="cls-4" cx="282.46" cy="107.62" r="1.21"/><circle class="cls-4" cx="271.75" cy="156.87" r="2.73"/><circle class="cls-4" cx="275.82" cy="157.83" r="2.73"/><circle class="cls-4" cx="279.65" cy="158.73" r="2.73"/><circle class="cls-4" cx="283.27" cy="159.58" r="2.73"/><circle class="cls-4" cx="281.24" cy="161.02" r="1.21"/><circle class="cls-4" cx="274.11" cy="156.03" r="1.21"/><circle class="cls-4" cx="272.82" cy="158.68" r="1.21"/><circle class="cls-4" cx="277.06" cy="159.84" r="1.21"/><circle class="cls-4" cx="285.21" cy="158.48" r="1.21"/><circle class="cls-4" cx="270.96" cy="154.94" r="1.21"/><circle class="cls-4" cx="278.3" cy="157.17" r="1.21"/><circle class="cls-4" cx="269.43" cy="157.41" r="1.21"/><circle class="cls-4" cx="284.83" cy="161.04" r="1.21"/><circle class="cls-4" cx="263.62" cy="127.55" r="1.21"/><circle class="cls-4" cx="267.93" cy="126.66" r="1.21"/><circle class="cls-4" cx="263.16" cy="125.81" r="2.73"/><circle class="cls-4" cx="266.5" cy="128.15" r="2.73"/><circle class="cls-4" cx="269.92" cy="126.42" r="2.73"/><circle class="cls-4" cx="272.66" cy="123.39" r="2.73"/><circle class="cls-4" cx="272.19" cy="125.82" r="1.21"/><circle class="cls-4" cx="263.57" cy="124.6" r="1.21"/><circle class="cls-4" cx="273.04" cy="121.11" r="1.21"/><circle class="cls-4" cx="261.48" cy="123.7" r="1.21"/><circle class="cls-4" cx="267.93" cy="124.73" r="1.21"/><circle class="cls-4" cx="263.62" cy="128.54" r="1.21"/><circle class="cls-4" cx="274.84" cy="121.79" r="1.21"/><rect class="cls-5" x="260.09" y="141.26" width="20.32" height="4.89"/><path class="cls-6" d="M267.1,140.92v5.5h5.5v-5.5Zm4.25,4.31h-3.13V142.1h3.13Z"/><path class="cls-7" d="M58.83,170.05c2.57-3.7,15.67,4.75,20.16-5.49,2.57-5.88-7.2-11.06-14.87-14.76a28.51,28.51,0,0,0,7.71-8,14.93,14.93,0,0,0-26.4-13.95c-1.3,2.47-1.75,7.42-1.61,10-7.22-4-17.16-7.58-20.43-2.37-5.93,9.48,9.82,13.54,7,19.46S6.48,156.67,8.28,171.17s21,2.38,28,6.06a2.34,2.34,0,0,0,.48.18,2.74,2.74,0,0,0,.43.3c7,3.67,7.34,26.14,20.33,19.46S56.26,173.74,58.83,170.05Z"/><path class="cls-8" d="M44.84,187.52a.56.56,0,0,1-.09-.17.59.59,0,0,1,.37-.75c.69-.24,1.26.45,1.68.94l.16.19c.36.44,1,1.24,1.33,1.14s.35-1.15.37-1.71c0-.92.07-1.79.77-2s1.33.4,2.06,1.15a5.63,5.63,0,0,0,1.24,1.05,4.75,4.75,0,0,0,0-1.15c0-.95-.12-2.14.84-2.47s1.63.66,2.17,1.45a4.94,4.94,0,0,0,.72.9,5.56,5.56,0,0,0,.34-1.59c.13-1,.24-1.94.93-2.17s1.26.43,1.84,1.13c.21.25.42.5.63.71s.57.48.71.43a.59.59,0,0,1,.74.37.57.57,0,0,1-.37.74c-.9.31-1.66-.46-1.92-.71s-.47-.52-.69-.79-.37-.44-.54-.61a10.33,10.33,0,0,0-.16,1c-.14,1.13-.29,2.3-1.15,2.59s-1.51-.59-2.05-1.38a4.06,4.06,0,0,0-.82-1,4,4,0,0,0,0,1.28c0,1,.11,2-.78,2.34s-1.69-.54-2.49-1.35a10.18,10.18,0,0,0-.76-.73c0,.23,0,.57-.06.81,0,1.08-.09,2.42-1.16,2.79s-1.92-.67-2.61-1.5l-.16-.19a3.76,3.76,0,0,0-.53-.56A.58.58,0,0,1,44.84,187.52Z"/><path class="cls-8" d="M48,194a.59.59,0,0,1-.12-.43l0-.18c.13-1,.24-1.94.93-2.17s1.26.43,1.85,1.13c.36.43,1,1.24,1.33,1.14s.34-1.15.37-1.72c0-.91.07-1.78.77-2s1.32.41,2.06,1.16a5.41,5.41,0,0,0,1.24,1,5.34,5.34,0,0,0,0-1.15c-.06-1-.12-2.15.84-2.47s1.63.66,2.17,1.44a4.3,4.3,0,0,0,.72.91,6,6,0,0,0,.34-1.59V189a.58.58,0,0,1,.65-.51.59.59,0,0,1,.52.66l0,.09c-.14,1.13-.28,2.3-1.14,2.59s-1.51-.59-2.05-1.38a3.87,3.87,0,0,0-.82-1,3.9,3.9,0,0,0,0,1.27c0,1,.11,2-.78,2.35s-1.69-.55-2.49-1.36c-.23-.23-.54-.54-.76-.72a7,7,0,0,0-.06.81c0,1.08-.09,2.42-1.16,2.78s-1.92-.67-2.61-1.5c-.16-.19-.38-.44-.54-.61a10.27,10.27,0,0,0-.17,1l0,.18a.59.59,0,0,1-.66.51A.57.57,0,0,1,48,194Z"/><path class="cls-8" d="M21.49,176.22a.6.6,0,0,1,.06-.79l.62-.56a8.94,8.94,0,0,0,.77-.72c-.23,0-.56-.07-.81-.1-1.07-.11-2.41-.24-2.71-1.32s.79-1.88,1.66-2.52c.19-.15.46-.35.64-.51-.28-.08-.71-.16-1-.22-1.12-.21-2.28-.42-2.52-1.3s.68-1.47,1.5-2a4,4,0,0,0,1-.76,3.9,3.9,0,0,0-1.27-.13c-1,0-2,0-2.29-.92s.64-1.65,1.5-2.4c.24-.21.58-.51.77-.72l-.64-.09a.59.59,0,1,1,.12-1.17c.71.07,1.6.16,1.8.88s-.49,1.29-1.28,2a5.78,5.78,0,0,0-1.12,1.18,5.47,5.47,0,0,0,1.15.09c.95,0,2.14,0,2.41,1s-.75,1.59-1.57,2.09a4.58,4.58,0,0,0-1,.66,5.51,5.51,0,0,0,1.57.43c1,.19,1.92.36,2.11,1.06s-.5,1.23-1.24,1.77c-.45.34-1.3,1-1.21,1.27s1.13.4,1.69.46c.91.09,1.77.18,2,.89s-.49,1.3-1.28,2l-.58.52a.59.59,0,0,1-.83,0Z"/><path class="cls-8" d="M14.68,175.54a1,1,0,0,1-.19-.39c-.25-.91.68-1.47,1.5-2a4,4,0,0,0,1-.76,3.93,3.93,0,0,0-1.27-.12c-1,0-2.05,0-2.3-.92s.65-1.66,1.5-2.41a7.68,7.68,0,0,0,.77-.72c-.23,0-.56-.08-.81-.1-1.07-.11-2.41-.24-2.7-1.32s.78-1.89,1.65-2.53a6.43,6.43,0,0,0,.64-.5c-.27-.08-.71-.16-1-.22l-.18,0a.58.58,0,0,1-.47-.68.59.59,0,0,1,.69-.47l.18,0c1,.19,1.92.36,2.11,1.06s-.5,1.23-1.24,1.77c-.46.34-1.3,1-1.22,1.26s1.13.41,1.69.47c.91.09,1.78.17,2,.89s-.48,1.3-1.27,2A5.25,5.25,0,0,0,14.61,171a4.31,4.31,0,0,0,1.14.09c1,0,2.15,0,2.42,1s-.76,1.59-1.58,2.08a4.23,4.23,0,0,0-.94.67,5.78,5.78,0,0,0,1.57.42c1,.2,1.92.36,2.11,1.06s-.52,1.23-1,1.59a.6.6,0,0,1-.82-.11h0a.59.59,0,0,1,.12-.82l.39-.32a9.24,9.24,0,0,0-1-.23A3.89,3.89,0,0,1,14.68,175.54Z"/><path class="cls-8" d="M66.2,166.93a1.66,1.66,0,0,1-.38-1.67c.41-1,1.75-1,2.83-1a7.42,7.42,0,0,0,.82,0c-.17-.23-.47-.56-.69-.8-.77-.84-1.56-1.7-1.23-2.55s1.43-.77,2.38-.67a4.27,4.27,0,0,0,1.28,0,4,4,0,0,0-.94-.87c-.77-.58-1.63-1.23-1.28-2.11s1.5-.94,2.64-1h.09a.59.59,0,0,1,.63.54.57.57,0,0,1-.54.63h-.1a5.57,5.57,0,0,0-1.6.26,4.54,4.54,0,0,0,.87.76c.76.58,1.71,1.3,1.33,2.24s-1.55.82-2.5.72a5.17,5.17,0,0,0-1.16,0,5.69,5.69,0,0,0,1,1.28c.71.78,1.32,1.44,1,2.12s-1.14.68-2.06.67c-.56,0-1.61,0-1.73.28s.66,1,1.07,1.39l.09.07a.59.59,0,0,1,0,.83.59.59,0,0,1-.83,0l-.08-.08A7.28,7.28,0,0,1,66.2,166.93Zm3.87-9.24Z"/><path class="cls-8" d="M25.63,143.61a.62.62,0,0,1-.12-.44.59.59,0,0,1,.67-.5,6.7,6.7,0,0,1,1.52.47c.23.09.55.21.77.27a10.07,10.07,0,0,0-.36-1c-.43-1-.86-2.14-.25-2.82s1.6-.21,2.46.21a3.83,3.83,0,0,0,1.19.47,3.71,3.71,0,0,0-.58-1.14c-.51-.81-1.08-1.73-.45-2.43s1.74-.35,2.83,0a9.13,9.13,0,0,0,1,.27,8.11,8.11,0,0,0-.34-.74l-.21-.41a.59.59,0,0,1,1.06-.51l.2.39c.41.82.8,1.59.3,2.14s-1.35.29-2.36,0a5.41,5.41,0,0,0-1.59-.31,4.6,4.6,0,0,0,.54,1c.51.81,1.14,1.82.46,2.57s-1.74.22-2.6-.21a4.25,4.25,0,0,0-1.07-.44A5.6,5.6,0,0,0,29.2,142c.39,1,.73,1.81.24,2.35s-1.31.24-2.16-.09a7.13,7.13,0,0,0-1.27-.41A.55.55,0,0,1,25.63,143.61Zm8.77-6.42Z"/><circle class="cls-9" cx="49.95" cy="151.75" r="3.17"/><circle class="cls-10" cx="45.5" cy="160.16" r="3.17"/><circle class="cls-11" cx="41.39" cy="167.94" r="3.17"/><circle class="cls-8" cx="56.76" cy="130.08" r="1.56"/><circle class="cls-8" cx="63.61" cy="133.7" r="1.56"/><path class="cls-8" d="M54.25,139.36a4,4,0,0,1-.66-1.33c-.64-2.28.81-4.75.87-4.86a.59.59,0,0,1,1,.6h0a6,6,0,0,0-.76,3.95,2.93,2.93,0,0,0,1.58,1.82,2.8,2.8,0,0,0,2.35.26c1.72-.61,2.69-2.87,2.7-2.9a.59.59,0,0,1,.77-.31.6.6,0,0,1,.32.77c0,.11-1.19,2.76-3.39,3.55a4,4,0,0,1-3.3-.33A4.7,4.7,0,0,1,54.25,139.36Z"/><polygon class="cls-12" points="63.38 212.61 38 201.02 38 172.11 63.38 183.71 63.38 212.61"/><polygon class="cls-13" points="63.38 212.61 88.76 201.02 88.76 172.11 63.38 183.71 63.38 212.61"/><polygon class="cls-4" points="88.76 172.11 63.38 160.51 38 172.11 63.38 183.71 88.76 172.11"/><path class="cls-14" d="M60.37,166.24l-5.53-4a4,4,0,0,0-6.39,2.85l-.71,6.79A4,4,0,0,0,53.4,176l6.24-2.78A4,4,0,0,0,60.37,166.24Z"/><path class="cls-14" d="M64.8,166.57,70.56,164a4.2,4.2,0,0,1,5.88,4.27l-.66,6.28a4.19,4.19,0,0,1-6.63,2.95L64,173.79A4.19,4.19,0,0,1,64.8,166.57Z"/><circle class="cls-15" cx="61.95" cy="169.73" r="3.56"/><path class="cls-16" d="M32.93,174.47s6.83,2.34,8.75,3.72,4.16,5.16,5.48,7.76.76,7.9,1.67,12-3.18,10.07-4.56,11-12.71,7.84-15.74,8.47-9.3-2.71-11.69-3.31-9-5.92-9.42-8.92-2.26-13.83-1-17.56a16,16,0,0,1,6.81-8.4c2.83-1.72,8-4.38,9.7-4.49S32.93,174.47,32.93,174.47Z"/><rect class="cls-17" x="25.13" y="182.07" width="4.6" height="6.3" rx="2.3" ry="2.3" transform="translate(189.06 90.69) rotate(68.1)"/><rect class="cls-17" x="33.7" y="194.94" width="4.6" height="6.3" rx="2.3" ry="2.3" transform="translate(236.08 220.56) rotate(106.71)"/><rect class="cls-17" x="37.02" y="183.9" width="4.6" height="6.3" rx="2.3" ry="2.3" transform="translate(210.67 102.36) rotate(75.57)"/><rect class="cls-17" x="19.36" y="191.88" width="4.6" height="6.3" rx="2.3" ry="2.3" transform="translate(-24.18 4.23) rotate(-7.17)"/><rect class="cls-17" x="22.97" y="204.5" width="4.6" height="6.3" rx="2.3" ry="2.3" transform="translate(-132.7 70.53) rotate(-42.1)"/><rect class="cls-17" x="10.93" y="191.79" width="4.6" height="6.3" rx="2.3" ry="2.3" transform="translate(-127.29 59.17) rotate(-42.1)"/><path class="cls-18" d="M298.93,165.31h-2.55v-3.09a6,6,0,0,0-6-6h-4a6,6,0,0,0-6,6v3.09h-2.55v-3.09a8.55,8.55,0,0,1,8.54-8.54h4a8.55,8.55,0,0,1,8.55,8.54Z"/><polygon class="cls-19" points="304.45 164.85 288.4 164.85 272.34 164.85 266.4 202.9 288.4 202.9 310.4 202.9 304.45 164.85"/><rect class="cls-20" x="237.42" y="179.94" width="37.52" height="31.04"/><rect class="cls-14" x="249.6" y="179.94" width="11.58" height="31.04"/><path class="cls-14" d="M254.61,176.15,248,171.31a4.18,4.18,0,0,0-6.6,2.94l-.85,8.19a4.16,4.16,0,0,0,5.84,4.24l7.52-3.35A4.17,4.17,0,0,0,254.61,176.15Z"/><path class="cls-14" d="M259,176.33l6.51-2.9a4.48,4.48,0,0,1,6.29,4.56l-.74,7.09a4.49,4.49,0,0,1-7.1,3.16l-5.77-4.18A4.49,4.49,0,0,1,259,176.33Z"/><circle class="cls-15" cx="256.01" cy="179.71" r="3.87"/><rect class="cls-11" x="146.74" y="91.62" width="26" height="161"/><polygon class="cls-4" points="146.74 171.56 172.74 145.56 172.74 113.11 146.74 139.1 146.74 171.56"/><polygon class="cls-4" points="146.74 233.74 172.74 207.74 172.74 175.28 146.74 201.28 146.74 233.74"/><path class="cls-11" d="M159.74,247.56c-19.58,0-51.5,14.33-51.5,32h103C211.24,261.89,179.33,247.56,159.74,247.56Z"/><path class="cls-11" d="M159.74,124.22,197.4,71.48c-9.7-7.71-23-12.46-37.66-12.46s-28,4.75-37.66,12.46Z"/><rect class="cls-11" x="45.74" y="71.42" width="228" height="5.99"/><path class="cls-11" d="M45.74,243.24a44.75,44.75,0,0,0,44.75-44.75H1A44.76,44.76,0,0,0,45.74,243.24Z"/><path class="cls-11" d="M273.74,243.24a44.75,44.75,0,0,0,44.75-44.75H229A44.76,44.76,0,0,0,273.74,243.24Z"/><circle class="cls-11" cx="45.74" cy="74.42" r="6.25"/><circle class="cls-11" cx="273.74" cy="74.42" r="6.25"/></svg>