<svg id="Layer_1" data-name="Layer 1" xmlns="http://www.w3.org/2000/svg" viewBox="0 0 319.48 344.23"><defs><style>.cls-1{fill:#f8efe2;}.cls-2{fill:#be2326;}.cls-3{fill:#f6d8cf;}.cls-4{fill:#f5949b;opacity:0.5;}.cls-5{fill:#f2e4d1;}.cls-6{fill:#414042;}.cls-7{fill:#d3b588;}.cls-8{fill:#603913;}.cls-9{fill:#231f20;}</style></defs><title>Christmas tool illustration_111218</title><path class="cls-1" d="M207,260.88a6,6,0,0,1,1.63-.59,11.15,11.15,0,0,1,2.76-.22,5.94,5.94,0,0,1,5.7,6,6,6,0,0,1,5.18,6.44,11.34,11.34,0,0,1-.58,2.69,5.94,5.94,0,0,1-7.35,3.75,6,6,0,0,1-7.65,3.11,11.11,11.11,0,0,1-2.41-1.33,5.83,5.83,0,0,1-1.71-1.9,6,6,0,0,1-1.67-1.93,12,12,0,0,1-1-2.57,6,6,0,0,1,4.06-7.19A6,6,0,0,1,207,260.88Z"/><path class="cls-2" d="M156.19,242.86l17.52,1.86c-.88,8.27-3.05,31.53-2.56,39.71.47,8,6.09,28.46,8.22,35.68l-16.91,5c-.84-2.86-8.23-28.24-8.91-39.62C152.89,274.36,155.85,246.05,156.19,242.86Z"/><path class="cls-2" d="M211.21,200.54l.37,17.63c8.32-.18,31.68-.37,39.78.81,7.9,1.14,27.84,8.49,34.86,11.22l6.4-16.43c-2.78-1.08-27.44-10.6-38.72-12.24C242.88,199.93,214.42,200.48,211.21,200.54Z"/><circle class="cls-2" cx="168.06" cy="192.08" r="53.76"/><circle class="cls-3" cx="197.05" cy="245.8" r="21.08"/><circle class="cls-4" cx="203.97" cy="238.78" r="4.45"/><circle class="cls-4" cx="187.39" cy="247.73" r="4.45"/><path class="cls-1" d="M176.69,251.83c1.71-5.78,7.15-12,14.91-16.14s15.9-5.34,21.68-3.6a32.16,32.16,0,1,0-36.59,19.74Z"/><path class="cls-5" d="M198.44,236.46l.38-.21,8.42-4.54c1.25-.68,1.82-1,2.22-.24s-.59.7-.59.7a1.19,1.19,0,0,0,1.58.21c1.07-.52,1.13-2.61-1.7-4.29-1.63-1-6.32-3.27-10.29-2.53s-7,3.91-7.35,5.26a5.06,5.06,0,0,0,7.33,5.64Z"/><path class="cls-5" d="M188.55,241.8l-.38.2-8.41,4.54c-1.26.68-1.83,1-1.43,1.72s.91-.1.91-.1a1.19,1.19,0,0,1-.69,1.44c-1,.6-2.8-.49-2.65-3.77.08-1.91.73-7.09,3.53-10s7.13-3.73,8.43-3.26a5,5,0,0,1,2.74,2.36A5.07,5.07,0,0,1,188.55,241.8Z"/><path class="cls-1" d="M199.5,238.4l.42-.23,9.41-5.07c1.4-.76,2-1.1,2.48-.28s-.66.79-.66.79a1.35,1.35,0,0,0,1.77.24c1.19-.58,1.26-2.92-1.9-4.8-1.82-1.08-7.06-3.65-11.5-2.83s-7.86,4.37-8.22,5.88a5.67,5.67,0,0,0,8.2,6.3Z"/><path class="cls-1" d="M189.53,243.78l-.42.23-9.41,5.08c-1.4.76-2,1.1-1.59,1.92s1-.12,1-.12a1.36,1.36,0,0,1-.78,1.62c-1.14.67-3.13-.55-3-4.23.09-2.12.82-7.91,4-11.16s8-4.17,9.42-3.65a5.66,5.66,0,0,1,.77,10.31Z"/><circle class="cls-3" cx="292.62" cy="222.12" r="8.87"/><path class="cls-2" d="M203.58,257.88c-8.67,4.68-17.56,6.05-23,4.06.21.47.43.94.68,1.4a22.22,22.22,0,0,0,39.11-21.1c-.25-.46-.52-.91-.79-1.34C218.27,246.53,212.24,253.21,203.58,257.88Z"/><path class="cls-1" d="M218,237.88a5.95,5.95,0,0,1,8.62,6.59c-.08.32-.16.63-.25.95a5.95,5.95,0,1,1-11.42-3.34c0-.11.06-.22.08-.33A6,6,0,0,1,218,237.88Z"/><path class="cls-1" d="M213.65,245.67a6,6,0,0,1,7.37,9.08c-.32.38-.66.76-1,1.12a6,6,0,0,1-4.73,1.9,5.91,5.91,0,0,1-2.51,4.37c-.38.27-.77.53-1.17.79a5.91,5.91,0,0,1-4.91.76,6,6,0,0,1-3.32,3.69c-.44.19-.87.37-1.31.54a5.92,5.92,0,0,1-5-.3,5.89,5.89,0,0,1-4.18,2.91l-1.47.21a5.95,5.95,0,1,1-1.47-11.8l1-.15a5.91,5.91,0,0,1,3.79.64,6,6,0,0,1,3-2.57l1-.41a6,6,0,0,1,4-.26,5.93,5.93,0,0,1,2.4-3.19c.3-.2.6-.4.89-.61a5.92,5.92,0,0,1,3.77-1.06,6,6,0,0,1,1.55-3.53l.67-.75A5.87,5.87,0,0,1,213.65,245.67Z"/><path class="cls-1" d="M179,258.93a5.94,5.94,0,0,1,4.86-.36l.33.11a6,6,0,1,1-3.48,11.38l-.93-.31a6,6,0,0,1-3.54-7.63A5.85,5.85,0,0,1,179,258.93Z"/><path class="cls-6" d="M193.89,249.61l.07,0a.66.66,0,0,1,.86.37,4.29,4.29,0,0,1-6.85,4.76.66.66,0,0,1,.88-1,3,3,0,0,0,4.74-3.29A.66.66,0,0,1,193.89,249.61Z"/><path class="cls-6" d="M202,245.25a.65.65,0,0,1,.85.2,3,3,0,0,0,5.35-2.16.66.66,0,0,1,1.31-.2,4.29,4.29,0,0,1-7.74,3.12.66.66,0,0,1,.16-.92Z"/><path class="cls-3" d="M182.88,328.68s-2.29-14-11-13-23.81,11.84-23.6,13.63S182.88,328.68,182.88,328.68Z"/><path class="cls-7" d="M308.27,224.85c-1.16-.61-4-3.13-5.66-3.18s-8.4,2.12-9.23,2.44-3.71,2.89-3.75,5.15-1,5-.64,6.46a13.37,13.37,0,0,0,1.88,4.72,29.6,29.6,0,0,0,4.08,3H295a11.76,11.76,0,0,1,5.25-8.11c3.91-2.71,8.55-3.08,11.46-1.2.18-1.49.28-2.85.34-3.51C312.21,229.05,309.44,225.47,308.27,224.85Z"/><rect class="cls-8" x="292.02" y="227.35" width="2.46" height="3.37" rx="1.21" ry="1.21" transform="translate(-52.28 367.07) rotate(-59.77)"/><rect class="cls-8" x="291.98" y="234.45" width="2.46" height="3.37" rx="1.21" ry="1.21" transform="translate(61.75 533.04) rotate(-90.91)"/><rect class="cls-8" x="306.75" y="227.64" width="2.46" height="3.37" rx="1.21" ry="1.21" transform="translate(588.69 491.31) rotate(-173.65)"/><rect class="cls-8" x="301.85" y="225.5" width="2.46" height="3.37" rx="1.21" ry="1.21" transform="translate(677.91 281.71) rotate(151.42)"/><path class="cls-2" d="M183.1,155.49l-25.65-15.57c7.91-13,21.41-37.49,24-47.62,3.11-12.29,6.66-46.59,7.76-58.77l29.88,2.71c-.43,4.72-4.31,46.63-8.55,63.41C206,117.44,185.43,151.65,183.1,155.49Z"/><path class="cls-2" d="M130.22,188.16c-7.83-4.64-47.54-28.43-59.58-40.74S37,100,34.53,96.09L60.11,80.42c8.46,13.81,24.63,38.52,32,46s36.6,25.94,53.44,35.91Z"/><path class="cls-9" d="M224.88,45a26.3,26.3,0,0,1-35.34-11.6L236.48,9.65A26.29,26.29,0,0,1,224.88,45Z"/><path class="cls-9" d="M31,103.74A26.3,26.3,0,0,0,60.3,80.84L8.09,74.43A26.3,26.3,0,0,0,31,103.74Z"/></svg>