<svg id="Layer_1" data-name="Layer 1" xmlns="http://www.w3.org/2000/svg" viewBox="0 0 200 200"><defs><style>.cls-1{fill:#00acd7;}.cls-2{fill:#16505e;}.cls-3{fill:#88c548;}.cls-4{fill:#386d35;}</style></defs><title>Christmas tool illustration_271118</title><path class="cls-1" d="M115.06,45.65h-8.72V35.1A20.52,20.52,0,0,0,85.85,14.6H72.28A20.52,20.52,0,0,0,51.79,35.1V45.65H43.07V35.1A29.25,29.25,0,0,1,72.28,5.88H85.85A29.25,29.25,0,0,1,115.06,35.1Z"/><polygon class="cls-2" points="133.95 44.07 79.06 44.07 24.18 44.07 3.86 174.14 79.06 174.14 154.28 174.14 133.95 44.07"/><rect class="cls-3" x="72.97" y="71.68" width="123.53" height="123.53"/><path class="cls-4" d="M141.52,111.45H128A29.25,29.25,0,0,1,98.73,82.24V71.68h8.72V82.24A20.52,20.52,0,0,0,128,102.73h13.57A20.51,20.51,0,0,0,162,82.24V71.68h8.72V82.24A29.24,29.24,0,0,1,141.52,111.45Z"/></svg>