<svg id="Layer_1" data-name="Layer 1" xmlns="http://www.w3.org/2000/svg" viewBox="0 0 200 200"><defs><style>.cls-1{fill:#414042;}.cls-2{fill:#be2326;}.cls-3{fill:#9d191b;}.cls-4{fill:#d46327;}</style></defs><title>Christmas tool illustration_271118</title><path class="cls-1" d="M96.37,99.65,84.46,32.76s6.71-16.24,3.6-25.09-73.78-3-75.29-1.47-4.86,15.68,2.92,28c2.51,4,9.38,5.64,18.46,5.47s19.62-4.39,19.62-4.39l4,67.3Z"/><path class="cls-1" d="M102.64,105.24l11.91-66.88s-6.71-16.24-3.6-25.09,72.8-3.23,75.29-1.47,4.86,15.68-2.92,28c-2.51,4-9.38,5.64-18.46,5.47s-19.62-4.39-19.62-4.39l-4,67.3Z"/><rect class="cls-2" x="25.2" y="82.34" width="149.6" height="114.26"/><rect class="cls-3" x="9.94" y="60.05" width="180.13" height="42.57" rx="9.01" ry="9.01"/><rect class="cls-4" x="39.27" y="166.11" width="46.54" height="22.36"/><rect class="cls-4" x="122.38" y="110.8" width="46.54" height="22.36"/><rect class="cls-4" x="96.39" y="137.1" width="46.54" height="22.36"/><rect class="cls-4" x="70.7" y="110.8" width="46.54" height="22.36"/></svg>