<svg id="Layer_1" data-name="Layer 1" xmlns="http://www.w3.org/2000/svg" viewBox="0 0 200 200"><defs><style>.cls-1{fill:#00a79d;}.cls-2{fill:#00827a;}.cls-3{fill:#4bb0b4;}</style></defs><title>Christmas tool illustration_271118</title><path class="cls-1" d="M150.8,173.22h36.6l1.09-79.73s13-7.65,10.12-20.3-30.65-16.06-35-.47S150.8,173.22,150.8,173.22Z"/><path class="cls-1" d="M151.76,173.22s-109.83,3.26-113.09,0-2.48-31.53,0-37.33S156,133.38,156,133.38Z"/><path class="cls-2" d="M164.81,66s8.26-29.52,0-35.31-120.59-8.34-127.12,0,0,76.47,0,76.47l119.15,6.63Z"/><path class="cls-1" d="M49.2,173.22H12.6L11.51,93.49s-13-7.65-10.12-20.3,30.65-16.06,35-.47S49.2,173.22,49.2,173.22Z"/><path class="cls-3" d="M160.52,97.24c-3.82-4.1-116.65-5.43-121.79,2.54s-10,35.17-2.89,38.79,117,4.35,122,0S167.61,104.85,160.52,97.24Z"/></svg>