<svg id="Layer_1" data-name="Layer 1" xmlns="http://www.w3.org/2000/svg" viewBox="0 0 200 200"><defs><style>.cls-1{fill:#00a661;}.cls-2{fill:#be1e2d;}.cls-3{fill:#ed1c24;}</style></defs><title>Christmas tool illustration_271118</title><rect class="cls-1" x="9.35" y="48.79" width="181.65" height="150.29"/><rect class="cls-2" x="68.35" y="48.79" width="56.07" height="150.29"/><path class="cls-2" d="M95.87,32.79,57.09,4.65A17.86,17.86,0,0,0,28.84,17.24l-5,47.65a17.85,17.85,0,0,0,25,18.17l43.76-19.5A17.86,17.86,0,0,0,95.87,32.79Z"/><path class="cls-2" d="M107.7,34l43.76-19.51a17.86,17.86,0,0,1,25,18.17l-5,47.65a17.86,17.86,0,0,1-28.25,12.6L104.48,64.79A17.85,17.85,0,0,1,107.7,34Z"/><circle class="cls-3" cx="99.4" cy="47.68" r="18.76"/></svg>