<svg id="Layer_1" data-name="Layer 1" xmlns="http://www.w3.org/2000/svg" viewBox="0 0 200 200"><defs><style>.cls-1{fill:#16505e;}.cls-2{fill:#ce2b27;}</style></defs><title>Christmas tool illustration_271118</title><path class="cls-1" d="M81.72,182.12s-1.52-34.28-7.17-42.83-13.18-17.81-10.32-22.06,3.57-5.19,6.89-5.65S84.6,114.71,86,110.45s0-7.1,0-8.52,2.62-2.36,2.62-3.78-4.72-4-4.72-4l4.74-1.44.74-1A1.56,1.56,0,0,0,91.09,91c.53-.94-.59-1.84.13-3.49s7-.68,7.24-3.76-6.82-10.68-6.82-12.81,5-4,4.77-6.85-3.54-4.51-3.52-8.54-1.62-9.47-3.27-11.61,0-1.66,2.16-5S91.12,33.81,89,30.5s-6-5.08-10.82-5.93-12.9-.38-18.82-.88-23.21,3.46-28.21,8.17S20.57,49.58,20.53,59.28s10.22,24,9.48,31.57-6.2,8.93-6.2,8.93L12,122.91s-1.23,3.06-3.14,6.84S1,174.94,1,174.94l0,6.81Z"/><path class="cls-2" d="M198.26,57.89C196.84,35.44,175,18.56,149.37,20.18S104.2,41.31,105.62,63.76a36.57,36.57,0,0,0,6,17.77,26.69,26.69,0,0,1-15.4,14.69s11,8.92,30.17-.79c0,0,17.6,6.71,28.15,6C180.1,99.85,199.68,80.34,198.26,57.89Z"/></svg>