<svg id="Layer_1" data-name="Layer 1" xmlns="http://www.w3.org/2000/svg" viewBox="0 0 200 200"><defs><style>.cls-1{fill:#c38558;}.cls-2{fill:#fff;}.cls-3{fill:#8dc63f;}.cls-4{fill:#09add8;}.cls-5{fill:#be2326;}</style></defs><title>Christmas tool illustration_271118</title><path class="cls-1" d="M137.55,93.46C134.23,82.91,170.36,70.14,157.19,46c-7.56-13.84-32.34-2.63-51.07,6.72.74-6.39-1-20.66-3.85-26.94a36.68,36.68,0,1,0-66.8,30.34c2.84,6.26,11.79,14.56,17.05,18.2-18.7,8-40.55,22-35.32,36.15,9.5,25.8,41.07,1.28,48.31,15.7s-32.68,48.94-1.79,67.23,36.22-37.26,53.84-45.26a4.87,4.87,0,0,0,1.08-.66,5,5,0,0,0,1.21-.39c17.62-8,61.86,25.05,68.41-10.25S140.87,104,137.55,93.46Z"/><path class="cls-2" d="M150.48,146.93a1.55,1.55,0,0,1-.47-.08,1.45,1.45,0,0,1-.9-1.84c.58-1.7,2.77-1.79,4.36-1.86l.62,0c1.38,0,4-.15,4.22-.88s-1.73-2.4-2.79-3.29c-1.73-1.45-3.36-2.82-2.77-4.54s2.79-2,5.34-2.27a13.47,13.47,0,0,0,3.9-.83,12,12,0,0,0-2.2-1.76c-1.93-1.34-4.34-3-3.53-5.35s3.73-2.19,6.07-2a11.31,11.31,0,0,0,2.84,0c-.17-.64-1.79-2.25-2.59-3-1.82-1.81-3.4-3.38-2.82-5.07s2.72-1.81,5-1.89a21.7,21.7,0,0,0,2.32-.15c1.09-.13,1.78-.4,1.9-.73a1.44,1.44,0,0,1,2.73.94c-.76,2.22-3.4,2.56-4.27,2.66s-1.73.14-2.58.17c-.6,0-1.42,0-2,.13a25.38,25.38,0,0,0,1.77,1.89c2,2,4,4,3.31,6.12s-3.42,2-5.76,1.91a9.53,9.53,0,0,0-3.15.11,10.16,10.16,0,0,0,2.41,2c1.94,1.33,4.13,2.85,3.38,5s-3.6,2.47-6.37,2.8c-.79.1-1.88.23-2.56.4.4.41,1,.93,1.5,1.33,2,1.7,4.56,3.82,3.66,6.44s-4.2,2.73-6.85,2.83l-.59,0a9.26,9.26,0,0,0-1.89.2A1.46,1.46,0,0,1,150.48,146.93Z"/><path class="cls-2" d="M167.81,150.64a1.41,1.41,0,0,1-1-.43l-.32-.31c-1.82-1.81-3.39-3.38-2.81-5.07s2.72-1.8,5-1.88c1.39,0,4-.14,4.22-.88s-1.72-2.4-2.79-3.29c-1.72-1.45-3.36-2.81-2.77-4.54s2.79-2,5.35-2.27a13.47,13.47,0,0,0,3.9-.83,12,12,0,0,0-2.2-1.76c-1.94-1.33-4.35-3-3.54-5.35s3.73-2.18,6.08-2a10.87,10.87,0,0,0,2.84,0c-.17-.64-1.79-2.24-2.59-3l-.16-.16a1.45,1.45,0,1,1,2-2l.16.16c2,2,4,4,3.3,6.12s-3.41,2-5.76,1.91a9.47,9.47,0,0,0-3.14.11,9.74,9.74,0,0,0,2.41,2c1.93,1.33,4.13,2.85,3.37,5s-3.59,2.47-6.37,2.8c-.79.1-1.87.23-2.56.4.41.41,1,.94,1.5,1.33,2,1.7,4.57,3.82,3.67,6.44s-4.2,2.73-6.85,2.83c-.61,0-1.43,0-2,.13a25.31,25.31,0,0,0,1.77,1.88l.32.32a1.44,1.44,0,0,1-1,2.47Z"/><path class="cls-2" d="M93.4,175.33A1.45,1.45,0,0,1,92,174c-.07-.66-.11-1.36-.15-2s-.12-1.88-.24-2.58c-.44.38-1,1-1.42,1.42-1.82,1.93-4.08,4.33-6.65,3.27s-2.48-4.35-2.41-7c0-.61,0-1.43,0-2a23.64,23.64,0,0,0-2,1.66c-2.08,1.86-4.24,3.79-6.31,2.93s-1.83-3.53-1.56-5.86a10,10,0,0,0,.08-3.15A9.65,9.65,0,0,0,69.14,163c-1.45,1.85-3.09,3.95-5.24,3.07s-2.24-3.74-2.41-6.53a24.82,24.82,0,0,0-.25-2.58c-.4.36-.89.87-1.13,1.12a1.45,1.45,0,1,1-2.09-2c1.21-1.28,2.73-2.88,4.41-2.18s1.79,2.9,1.94,5.47a13.67,13.67,0,0,0,.6,3.94,11.77,11.77,0,0,0,1.89-2.09c1.45-1.85,3.25-4.16,5.55-3.21s2,3.85,1.68,6.19A11.32,11.32,0,0,0,74,167c.65-.13,2.35-1.65,3.19-2.4,1.92-1.72,3.58-3.2,5.24-2.51S84,164.91,84,167.17c0,1.38-.1,4,.62,4.26s2.5-1.58,3.45-2.59c1.55-1.64,3-3.19,4.7-2.49s1.79,2.9,2,5.47c0,.64.08,1.29.14,1.91a1.44,1.44,0,0,1-1.29,1.59Z"/><path class="cls-2" d="M81.85,187.55a2.77,2.77,0,0,1-1-.21c-2.15-.88-1.84-3.53-1.56-5.86a10,10,0,0,0,.08-3.15,9.85,9.85,0,0,0-2.16,2.29c-1.45,1.85-3.09,4-5.24,3.07s-2.25-3.74-2.42-6.53a22.85,22.85,0,0,0-.24-2.58c-.43.38-1,1-1.41,1.42-1.83,1.93-4.09,4.33-6.65,3.27s-2.48-4.35-2.42-7a19,19,0,0,0,0-2,25.72,25.72,0,0,0-2,1.66l-.33.3a1.45,1.45,0,0,1-1.92-2.17l.33-.29c1.92-1.71,3.58-3.2,5.23-2.51s1.64,2.82,1.58,5.08c0,1.38-.09,4,.63,4.26S64.79,175,65.74,174c1.55-1.64,3-3.19,4.7-2.49s1.79,2.9,2,5.47a13.69,13.69,0,0,0,.59,3.94,11.42,11.42,0,0,0,1.9-2.09c1.45-1.85,3.24-4.16,5.55-3.21s2,3.85,1.68,6.19a11.39,11.39,0,0,0-.12,2.84c.65-.14,2.35-1.66,3.19-2.41,1.92-1.71,3.58-3.2,5.23-2.51S92,182.59,92,184a1.44,1.44,0,0,1-1.44,1.43h0A1.46,1.46,0,0,1,89.12,184a10.59,10.59,0,0,0,0-1.24,25.64,25.64,0,0,0-2,1.66C85.38,186,83.59,187.55,81.85,187.55Z"/><path class="cls-2" d="M142.57,74.44a4.08,4.08,0,0,1-3.83-1.77c-1.41-2.38.64-5,2.28-7,.38-.48.88-1.13,1.2-1.61-.71,0-1.8.07-2.59.13-2.79.24-5.67.49-6.81-1.44s.65-3.92,2.28-5.62a10.17,10.17,0,0,0,2-2.47,9.65,9.65,0,0,0-3.1.53c-2.27.61-4.85,1.3-6-.69s.44-4.34,2-6.67l.13-.2a1.45,1.45,0,1,1,2.42,1.6l-.13.19a13.63,13.63,0,0,0-1.9,3.51,11.78,11.78,0,0,0,2.77-.53c2.27-.61,5.1-1.38,6.37.76s-.75,4.26-2.37,6a11.11,11.11,0,0,0-1.8,2.2c.6.28,2.87.09,4,0,2.57-.21,4.78-.4,5.7,1.14s-.39,3.24-1.79,5c-.86,1.09-2.46,3.11-2.06,3.78s2.94.24,4.31,0l.27,0a1.45,1.45,0,1,1,.48,2.85L146,74A21,21,0,0,1,142.57,74.44ZM130.43,53h0Z"/><path class="cls-2" d="M36.23,118.25a1.45,1.45,0,0,1-1-.44,1.46,1.46,0,0,1,0-2,18.58,18.58,0,0,1,3.2-2.25c.52-.31,1.22-.74,1.68-1.08-.64-.27-1.7-.57-2.46-.79-2.69-.75-5.47-1.54-5.86-3.75s2-3.44,4.11-4.46a9.76,9.76,0,0,0,2.69-1.62,9.93,9.93,0,0,0-3.09-.6c-2.34-.22-5-.48-5.39-2.77s1.94-3.9,4.21-5.54c.64-.47,1.52-1.11,2-1.59-.55-.16-1.36-.32-2-.43l-1.09-.22a1.45,1.45,0,0,1,.6-2.83L35,88c2.22.43,4.31.83,4.63,2.63S38.1,93.73,36,95.24a13.86,13.86,0,0,0-3,2.62,11.6,11.6,0,0,0,2.78.47c2.34.23,5.25.52,5.69,3S39.27,105,37.15,106a11.11,11.11,0,0,0-2.46,1.42c.46.47,2.66,1.09,3.74,1.4,2.48.7,4.62,1.3,4.93,3.07s-1.5,2.89-3.44,4.06a16,16,0,0,0-2.68,1.86A1.45,1.45,0,0,1,36.23,118.25Zm.69-26.71h0Z"/><circle class="cls-3" cx="88.61" cy="83.2" r="7.79"/><circle class="cls-4" cx="98.28" cy="104.49" r="7.79"/><circle class="cls-5" cx="107.23" cy="124.2" r="7.79"/><circle class="cls-2" cx="56.73" cy="37.4" r="3.83"/><circle class="cls-2" cx="74.08" cy="29.52" r="3.83"/><path class="cls-2" d="M71,56.21a9.29,9.29,0,0,1-3.58-.71c-5.4-2.18-8-8.73-8.13-9A1.45,1.45,0,1,1,62,45.44h0c0,.05,2.29,5.68,6.54,7.39a7.2,7.2,0,0,0,5.91-.32,6.94,6.94,0,0,0,4-4.18c1.4-4.28-1.53-9.56-1.56-9.62a1.44,1.44,0,0,1,.55-2,1.46,1.46,0,0,1,2,.55c.14.27,3.58,6.46,1.79,11.93a9.78,9.78,0,0,1-5.6,5.92A11.17,11.17,0,0,1,71,56.21Z"/></svg>