<svg id="Layer_1" data-name="Layer 1" xmlns="http://www.w3.org/2000/svg" viewBox="0 0 200 200"><defs><style>.cls-1{fill:#e6e7e8;}.cls-2{fill:#560942;}.cls-3{fill:#d3b588;}</style></defs><title>Christmas tool illustration_271118</title><circle class="cls-1" cx="100.41" cy="100.18" r="96.89"/><circle class="cls-2" cx="100.41" cy="100.18" r="83.56"/><path class="cls-3" d="M25.29,136.77a83.15,83.15,0,0,0,32.52,35.29l-.33-.67,22.08-10.75,10.75,22.08-.67.32a83.55,83.55,0,0,0,82.66-40.26l-.67.33L160.88,121,183,110.27l.32.67A83.55,83.55,0,0,0,143,28.29l.33.67L121.27,39.71,110.51,17.63l.67-.32A83.55,83.55,0,0,0,28.53,57.57l.67-.33L40,79.32,17.87,90.08l-.32-.67A83.16,83.16,0,0,0,25.29,136.77Zm102-84.67,22.08-10.76,10.75,22.08L138.06,74.18Zm16.79,34.46,22.08-10.75,10.75,22.08-22.08,10.75Zm-68-52.14L98.13,23.67l10.75,22.08L86.8,56.5ZM92.84,68.89l22.08-10.76,10.75,22.08L103.59,91Zm16.78,34.46L131.7,92.6l10.76,22.08-22.08,10.75Zm16.79,34.47,22.08-10.76,10.75,22.08L137.17,159.9ZM41.58,51.21,63.66,40.45,74.42,62.53,52.34,73.29ZM58.37,85.67,80.45,74.92,91.2,97,69.12,107.75Zm16.79,34.47,22.08-10.76L108,131.46,85.91,142.22ZM92,154.6,114,143.85l10.76,22.08L102.7,176.68Zm-18.42-6.35L51.45,159,40.69,136.93l22.08-10.76ZM46,91.71l10.76,22.08L34.66,124.54,23.91,102.46Z"/><path class="cls-3" d="M100.51,195.79c-.5,0-1,0-1.52,0a12,12,0,0,1-10.8-7.1,12,12,0,0,1-12.32,3.89c-1.25-.33-2.51-.69-3.74-1.08a12,12,0,0,1-8.37-9.84,12,12,0,0,1-12.91.28c-1.11-.67-2.22-1.37-3.29-2.08A12,12,0,0,1,42.29,168a12,12,0,0,1-12.48-3.37c-.87-1-1.73-1.95-2.56-2.94a12,12,0,0,1-1.71-12.81,12.06,12.06,0,0,1-11-6.77l0-.11c-.57-1.17-1.12-2.36-1.64-3.54a12.06,12.06,0,0,1,2-12.77,12,12,0,0,1-8.67-9.59c-.21-1.28-.41-2.58-.57-3.87a12,12,0,0,1,5.51-11.7,12,12,0,0,1-5.6-11.65c.15-1.29.33-2.59.54-3.87a12.05,12.05,0,0,1,8.57-9.66,12,12,0,0,1-2.09-12.75c.5-1.18,1-2.38,1.6-3.55A12,12,0,0,1,25,52.22,12,12,0,0,1,26.6,39.39c.82-1,1.68-2,2.54-3a12,12,0,0,1,12.44-3.51,12.06,12.06,0,0,1,5.15-11.86c1.07-.72,2.17-1.44,3.27-2.12a12,12,0,0,1,12.91.15,12,12,0,0,1,8.25-9.94c1.23-.4,2.49-.78,3.74-1.12A12,12,0,0,1,87.27,11.8,12,12,0,0,1,98,4.59c1.3,0,2.6,0,3.9,0a12,12,0,0,1,10.79,7.11A12,12,0,0,1,125,7.8c1.24.33,2.5.69,3.74,1.08a12,12,0,0,1,8.36,9.85A12,12,0,0,1,150,18.46c1.11.67,2.22,1.37,3.3,2.08a12.06,12.06,0,0,1,5.25,11.81,12,12,0,0,1,12.47,3.39c.87.95,1.73,1.94,2.57,2.93a12,12,0,0,1,1.68,12.84,12,12,0,0,1,11,6.71l0,.06c.57,1.17,1.11,2.34,1.61,3.5a12,12,0,0,1-2,12.77,12,12,0,0,1,8.68,9.59c.22,1.28.41,2.58.58,3.86a12.07,12.07,0,0,1-5.5,11.71,12,12,0,0,1,5.61,11.65c-.15,1.28-.34,2.58-.54,3.86a12,12,0,0,1-8.57,9.67,12,12,0,0,1,2.11,12.75c-.51,1.19-1.05,2.39-1.6,3.55a12,12,0,0,1-10.88,6.88h0a12,12,0,0,1-1.57,12.83c-.82,1-1.67,2-2.53,3a12,12,0,0,1-12.45,3.51,12,12,0,0,1-5.13,11.87c-1.07.73-2.17,1.44-3.27,2.12a12,12,0,0,1-12.91-.14,12.06,12.06,0,0,1-8.24,10c-1.23.4-2.49.77-3.74,1.12a12,12,0,0,1-12.38-3.76,12,12,0,0,1-10.73,7.22C102.1,195.78,101.3,195.79,100.51,195.79ZM75.69,168a11.94,11.94,0,0,1,3.56.55c.93.28,1.87.56,2.81.8A12,12,0,0,1,90,176a12,12,0,0,1,9.41-4.3h1.14c.6,0,1.19,0,1.78,0a12,12,0,0,1,9.45,4.21,12,12,0,0,1,7.8-6.79c.94-.26,1.88-.54,2.8-.84a12,12,0,0,1,10.27,1.36,12,12,0,0,1,5.6-8.72c.82-.51,1.65-1,2.45-1.59a12,12,0,0,1,10.22-1.56,12,12,0,0,1,2.91-9.93c.64-.72,1.27-1.46,1.89-2.21a12,12,0,0,1,9.31-4.4H165a12,12,0,0,1,0-10.35c.41-.87.81-1.77,1.19-2.66a12,12,0,0,1,7.77-6.86,12,12,0,0,1-2.92-9.93c.15-1,.28-1.94.4-2.9A12,12,0,0,1,177,99.77a12,12,0,0,1-5.6-8.7c-.13-1-.27-1.93-.43-2.88a12,12,0,0,1,2.81-10,12,12,0,0,1-7.84-6.77c-.38-.87-.79-1.75-1.21-2.6a12.1,12.1,0,0,1-.08-10.41,12,12,0,0,1-9.44-4.3c-.63-.74-1.27-1.48-1.92-2.19a12,12,0,0,1-3-9.89A12,12,0,0,1,140,40.61c-.8-.54-1.63-1.06-2.46-1.56a12,12,0,0,1-5.68-8.66,12,12,0,0,1-10.25,1.48c-.93-.29-1.88-.56-2.81-.81a12,12,0,0,1-7.88-6.71,12,12,0,0,1-9.42,4.29c-1,0-2,0-2.92,0a12,12,0,0,1-9.44-4.21,12,12,0,0,1-7.82,6.78c-.92.25-1.86.54-2.79.83a12,12,0,0,1-10.27-1.37,12,12,0,0,1-5.61,8.72c-.82.51-1.65,1.05-2.45,1.59A12,12,0,0,1,50,42.56a12,12,0,0,1-2.91,9.92c-.64.72-1.28,1.46-1.9,2.21a12,12,0,0,1-9.3,4.39h-.06a12,12,0,0,1,0,10.34c-.41.88-.82,1.78-1.19,2.67a12,12,0,0,1-7.77,6.85,12,12,0,0,1,2.91,9.94c-.15,1-.29,1.93-.4,2.89a12,12,0,0,1-5.53,8.75,12,12,0,0,1,5.59,8.71c.13,1,.27,1.93.43,2.88a12,12,0,0,1-2.82,10,12,12,0,0,1,7.83,6.78c.39.89.81,1.78,1.23,2.66l.06.11a12,12,0,0,1,.1,10.34,12,12,0,0,1,9.41,4.3c.62.74,1.27,1.47,1.91,2.18a12,12,0,0,1,3,9.89,12,12,0,0,1,10.24,1.45c.8.54,1.63,1.06,2.46,1.56A12,12,0,0,1,69,170,12.11,12.11,0,0,1,75.69,168Z"/></svg>