<svg id="Layer_1" data-name="Layer 1" xmlns="http://www.w3.org/2000/svg" viewBox="0 0 200 200"><defs><style>.cls-1{fill:#754c29;}.cls-2{fill:#c49a6c;}.cls-3{fill:#603913;}</style></defs><title>Christmas tool illustration_271118</title><rect class="cls-1" x="14.84" y="15.89" width="170.32" height="170.32" rx="53.22" ry="53.22" transform="translate(54.86 -33.76) rotate(26.19)"/><path class="cls-2" d="M134.7,37.2c-4.43,1.57-8.84,2.78-13.14,4.08-2.14.65-4.28,1.29-6.27,2a23,23,0,0,0-2.82,1.21,6.1,6.1,0,0,0-1.83,1.25l0,.05h0c.06-.06,0-.14,0-.24s0,0,0,.09.07.23.16.39a8.78,8.78,0,0,0,1.51,2.09,43.28,43.28,0,0,0,4.74,4.29c3.46,2.79,7.16,5.47,10.79,8.45A47.73,47.73,0,0,1,114.68,56a30.51,30.51,0,0,1-6-4.2A13.21,13.21,0,0,1,106,48.5a9.26,9.26,0,0,1-.51-1.19,5.81,5.81,0,0,1-.27-1.6,5,5,0,0,1,.33-1.91c.12-.26.26-.51.4-.76a3,3,0,0,1,.22-.35l.22-.29.48-.54.48-.42a7.87,7.87,0,0,1,.94-.7c.32-.23.62-.38.92-.56a8.51,8.51,0,0,1,.91-.45,24.44,24.44,0,0,1,3.57-1.29,44.57,44.57,0,0,1,7-1.33A55.52,55.52,0,0,1,134.7,37.2Z"/><path class="cls-2" d="M107.52,53.8c-5.39,1.49-10.77,2.63-16,3.88-2.63.62-5.25,1.25-7.76,2a37.93,37.93,0,0,0-3.6,1.24c-.55.24-1.09.47-1.55.73-.26.13-.4.26-.62.39a1.3,1.3,0,0,0-.21.18c-.06.05-.17.11-.17.14a.2.2,0,0,1-.09.09s0,0,0,0,0-.21.05-.15h0l0,.07c0,.06,0,.1,0,.17a3.47,3.47,0,0,0,.24.56,14.3,14.3,0,0,0,2,2.8,74.55,74.55,0,0,0,5.5,5.65c3.92,3.71,8,7.33,12,11.26a71.58,71.58,0,0,1-14.74-8A46.36,46.36,0,0,1,76,69.32,18.19,18.19,0,0,1,73,65.5a9.66,9.66,0,0,1-.58-1.33,6.71,6.71,0,0,1-.21-.83c0-.14-.06-.28-.08-.43l0-.51a5.14,5.14,0,0,1,.39-2.16c.16-.32.34-.64.53-.94s.38-.47.58-.69a4.79,4.79,0,0,1,.6-.54,5.92,5.92,0,0,1,.59-.46c.38-.23.78-.52,1.14-.69a18,18,0,0,1,2.19-1,32.75,32.75,0,0,1,4.26-1.23,62.65,62.65,0,0,1,8.39-1.23A77.81,77.81,0,0,1,107.52,53.8Z"/><path class="cls-2" d="M82.71,79.05c-4.12,1.45-8.22,2.87-12.27,4.37s-8.06,3-11.92,4.79C56.6,89.08,54.72,90,53,91a20.15,20.15,0,0,0-4.59,3.41,4.48,4.48,0,0,0-1.06,1.66,1.43,1.43,0,0,0,0,.54,2.12,2.12,0,0,0,.27.7A9.92,9.92,0,0,0,49,99.4a27.47,27.47,0,0,0,2.09,2.09,60.4,60.4,0,0,0,4.8,4c1.67,1.29,3.41,2.51,5.16,3.74,3.5,2.44,7.1,4.79,10.71,7.14C79,121,86.36,125.62,93.61,130.5a179.16,179.16,0,0,1-24-10.49c-3.87-2-7.68-4.19-11.41-6.54a79.32,79.32,0,0,1-10.78-8A33.2,33.2,0,0,1,45,103a14.41,14.41,0,0,1-2.23-3.27A7.17,7.17,0,0,1,42,97.3a6.67,6.67,0,0,1,.24-2.68,9.18,9.18,0,0,1,2.42-3.76,23.41,23.41,0,0,1,6-4A53,53,0,0,1,57,84.26a99.85,99.85,0,0,1,12.77-3.4c2.15-.42,4.3-.8,6.47-1.1S80.53,79.19,82.71,79.05Z"/><path class="cls-2" d="M72.75,128.31c-1.49,4-3.27,7.79-5,11.5s-3.62,7.36-5.07,10.94a24.5,24.5,0,0,0-.93,2.63,8.51,8.51,0,0,0-.43,2.23,1.69,1.69,0,0,0,0,.32c0,.13.09.32.13.48a4.56,4.56,0,0,0,.38,1,9.59,9.59,0,0,0,.61,1.06c.24.36.52.7.78,1.06a30,30,0,0,0,4.22,4c.78.65,1.61,1.25,2.44,1.9l2.56,1.87a23.78,23.78,0,0,1-6.31-1.44,21.52,21.52,0,0,1-5.88-3.26c-.44-.4-.89-.79-1.32-1.23l-.62-.71a5.69,5.69,0,0,1-.57-.77,8.36,8.36,0,0,1-1-1.77,10.46,10.46,0,0,1-.38-1,8.1,8.1,0,0,1-.21-1.21,12.28,12.28,0,0,1,.39-3.93,28.29,28.29,0,0,1,1.07-3.26,52,52,0,0,1,6.47-11.13A53.4,53.4,0,0,1,72.75,128.31Z"/><path class="cls-3" d="M141.67,42.94a14.85,14.85,0,0,1,3.81,4.56,20.29,20.29,0,0,1,2.05,5.31,17.26,17.26,0,0,1,.38,5.85,11.12,11.12,0,0,1-.79,3,5,5,0,0,1-2.07,2.5,10.74,10.74,0,0,0-.59-2.75L143.65,59c-.53-1.63-1-3.27-1.41-5a37.06,37.06,0,0,1-.82-5.28A21.83,21.83,0,0,1,141.67,42.94Z"/><path class="cls-3" d="M135.38,69.8A20.88,20.88,0,0,1,141,74.6a28.81,28.81,0,0,1,3.93,6.05,23.73,23.73,0,0,1,2.22,7,15.31,15.31,0,0,1,.08,3.83A8,8,0,0,1,146,95.17a25.9,25.9,0,0,0-1.38-3.28c-.5-1-1-2-1.53-3-1-2-2-3.9-3-5.91s-1.89-4.08-2.71-6.24A35.18,35.18,0,0,1,135.38,69.8Z"/><path class="cls-3" d="M117.26,92.58a17.21,17.21,0,0,1,5.52.8,26.27,26.27,0,0,1,4.76,2,28.27,28.27,0,0,1,4.25,2.75c.68.52,1.34,1.08,2,1.68.32.32.65.58,1,.93l1.06,1a7.33,7.33,0,0,1-3,.55,13.67,13.67,0,0,1-2.81-.29,19.16,19.16,0,0,1-5.05-1.84,21,21,0,0,1-4.33-3.06A14.77,14.77,0,0,1,117.26,92.58Z"/><path class="cls-3" d="M125.67,103.63a73.67,73.67,0,0,1,8.67,13.2,68,68,0,0,1,5.82,14.87,24.84,24.84,0,0,1,.74,8.61l-.23,1.22c-.12.42-.26.85-.4,1.26s-.35.78-.56,1.16a11.25,11.25,0,0,1-.75,1.1,8,8,0,0,1-4.36,2.85,11.18,11.18,0,0,1-4.61.2,19,19,0,0,1-4.07-1.09,25.08,25.08,0,0,1-3.65-1.76A23.53,23.53,0,0,1,119,143a57.73,57.73,0,0,0,7.59,1.44,21,21,0,0,0,3.61.11,12.18,12.18,0,0,0,1.65-.21,7.63,7.63,0,0,0,1.42-.47,3.91,3.91,0,0,0,1.84-1.61,4.73,4.73,0,0,0,.28-.55l.23-.62a6,6,0,0,1,.13-.61l.06-.7a25.37,25.37,0,0,0-.9-6.8c-1.16-4.77-2.82-9.6-4.45-14.46S127.1,108.74,125.67,103.63Z"/><path class="cls-3" d="M97.2,140.33a15.57,15.57,0,0,1-.32,5.47,21.73,21.73,0,0,1-1.7,4.78,21.35,21.35,0,0,1-2.74,4.27,15.39,15.39,0,0,1-4.14,3.58,15.34,15.34,0,0,1,.31-5.47,21.73,21.73,0,0,1,1.7-4.78,22.26,22.26,0,0,1,2.75-4.26A15.57,15.57,0,0,1,97.2,140.33Z"/><path class="cls-2" d="M45.56,40.32a24.91,24.91,0,0,1,1.58-9,33.15,33.15,0,0,1,4.24-8.1A27,27,0,0,1,58,16.65a20.51,20.51,0,0,1,4.18-2.18,14.08,14.08,0,0,1,4.61-.89c-1.13,1.11-2.19,2.1-3.17,3.13s-1.9,2.08-2.79,3.13c-1.77,2.11-3.4,4.29-5,6.53s-3.21,4.54-4.86,6.88S47.58,37.94,45.56,40.32Z"/><path class="cls-2" d="M35.69,59.38a20.68,20.68,0,0,1-.77,6.39,32.1,32.1,0,0,1-2.15,5.71,31,31,0,0,1-3.2,5.19A20.56,20.56,0,0,1,25,81.18a20.61,20.61,0,0,1,.76-6.39,32.28,32.28,0,0,1,5.37-10.9A20.72,20.72,0,0,1,35.69,59.38Z"/><path class="cls-3" d="M125.86,188.67a5.61,5.61,0,0,0,.58,0,3.68,3.68,0,0,0,.57-.06,6,6,0,0,0,1.11-.25,8.25,8.25,0,0,0,1.07-.33l1-.44a8.5,8.5,0,0,0,1-.53l.95-.55c.63-.38,1.21-.86,1.81-1.28a16.19,16.19,0,0,0,1.7-1.42c.54-.51,1.13-.93,1.63-1.49l1.54-1.61.77-.79c.25-.28.48-.58.72-.86l1.43-1.72c.47-.58,1-1.11,1.41-1.74.88-1.22,1.78-2.41,2.68-3.61s1.69-2.5,2.54-3.74l1.28-1.86c.41-.63.8-1.29,1.19-1.94,1.61-2.57,3.27-5.1,4.78-7.76.78-1.31,1.55-2.63,2.37-3.92.41-.65.77-1.32,1.15-2l1.15-2c.76-1.33,1.55-2.65,2.35-4l1.2-2,1.16-2c1.57-2.66,3.19-5.32,5-7.91-.72,3.05-1.62,6.05-2.57,9l-.73,2.22c-.25.74-.56,1.46-.83,2.19q-.86,2.17-1.76,4.34c-.62,1.44-1.17,2.9-1.88,4.3s-1.4,2.8-2.11,4.2L159,161.29l-.54,1-.6,1-2.46,4c-.43.66-.83,1.33-1.27,2l-1.39,1.93c-.95,1.27-1.84,2.57-2.84,3.81s-2.09,2.42-3.15,3.6-2.3,2.25-3.45,3.35c-.3.27-.57.56-.89.81l-1,.74-1.93,1.46a9,9,0,0,1-1,.67l-1,.63a16.44,16.44,0,0,1-2.16,1.14c-.77.31-1.48.68-2.27.92l-1.19.33a6.11,6.11,0,0,1-1.2.26A8.7,8.7,0,0,1,125.86,188.67Z"/></svg>