<svg id="Layer_1" data-name="Layer 1" xmlns="http://www.w3.org/2000/svg" xmlns:xlink="http://www.w3.org/1999/xlink" viewBox="0 0 200 200"><defs><style>.cls-1{fill:#f8efe2;}.cls-2{fill:#ef4136;}.cls-3{fill:url(#radial-gradient);}.cls-4{opacity:0.2;}.cls-5{fill:#fff;}.cls-6{fill:url(#radial-gradient-2);}.cls-7{fill:url(#radial-gradient-3);}.cls-8{fill:url(#radial-gradient-4);}.cls-9{fill:url(#radial-gradient-5);}.cls-10{fill:#f2e4d1;}.cls-11{fill:url(#radial-gradient-6);}.cls-12{fill:url(#radial-gradient-7);}.cls-13{fill:url(#radial-gradient-8);}.cls-14{fill:url(#radial-gradient-9);}</style><radialGradient id="radial-gradient" cx="41.75" cy="116.19" fx="35.343114449058966" r="27.85" gradientTransform="translate(-8.16 79.75) rotate(-11.37) scale(1 0.39)" gradientUnits="userSpaceOnUse"><stop offset="0" stop-color="#ed1c24"/><stop offset="0.21" stop-color="#f5858a" stop-opacity="0.91"/><stop offset="0.4" stop-color="#fcddde" stop-opacity="0.83"/><stop offset="0.49" stop-color="#fff" stop-opacity="0.8"/><stop offset="0.55" stop-color="#feeff0" stop-opacity="0.81"/><stop offset="0.66" stop-color="#fac5c7" stop-opacity="0.85"/><stop offset="0.81" stop-color="#f58185" stop-opacity="0.91"/><stop offset="0.99" stop-color="#ee232b" stop-opacity="0.99"/><stop offset="1" stop-color="#ed1c24"/></radialGradient><radialGradient id="radial-gradient-2" cx="926.55" cy="-1594.57" fx="920.1405135993174" r="27.85" gradientTransform="translate(-910.19 584.87) rotate(11.72) scale(1 0.39)" xlink:href="#radial-gradient"/><radialGradient id="radial-gradient-3" cx="-759.94" cy="-6603.88" fx="-759.9366914311659" r="22.27" gradientTransform="translate(-2221.35 1396.95) rotate(78.14) scale(1 0.39)" xlink:href="#radial-gradient"/><radialGradient id="radial-gradient-4" cx="-8414.91" cy="-2088.09" fx="-8414.910695570517" r="24.07" gradientTransform="matrix(-0.82, -0.58, 0.23, -0.32, -6354.67, -5449.18)" xlink:href="#radial-gradient"/><radialGradient id="radial-gradient-5" cx="-5996.26" cy="1412.1" fx="-5996.260046415695" r="21.45" gradientTransform="matrix(-0.04, -1, 0.39, -0.02, -691.67, -5917.47)" xlink:href="#radial-gradient"/><radialGradient id="radial-gradient-6" cx="-815.81" cy="-6604.36" fx="-815.8103116014981" r="22.27" gradientTransform="translate(-2210.05 1395.79) rotate(78.14) scale(1 0.39)" xlink:href="#radial-gradient"/><radialGradient id="radial-gradient-7" cx="-7693.91" cy="-5594.24" fx="-7693.909623639338" r="22.27" gradientTransform="matrix(-0.99, 0.16, -0.06, -0.39, -7866.61, -818.02)" xlink:href="#radial-gradient"/><radialGradient id="radial-gradient-8" cx="-3555.97" cy="1988.27" fx="-3562.381246350916" r="27.85" gradientTransform="translate(1049.87 -3420.3) rotate(-62.64) scale(1 0.39)" xlink:href="#radial-gradient"/><radialGradient id="radial-gradient-9" cx="-7694.96" cy="-5498.04" fx="-7694.958341442374" r="22.27" gradientTransform="matrix(-0.99, 0.16, -0.06, -0.39, -7856.79, -876.68)" xlink:href="#radial-gradient"/></defs><title>Christmas tool illustration_271118</title><path class="cls-1" d="M24.06,41.66S44.83,17.58,53.62,12s28-8.51,40.74-9.64,33.55,9.87,51.92,13,35.95,29.56,37.55,36.75,11.18,64.81,8.79,78.28-26.36,33.55-32.75,42.34-39,27.05-51.93,23.85S47.69,183,34.45,171.87,13.68,144.6,11.28,130.22s-4.79-39.83-2.4-47S24.06,41.66,24.06,41.66Z"/><path class="cls-2" d="M27.69,117.19c-.48-3.21-3.26-6-1.82-10.38s6.86-6.55,16.2-4.32c10.83,2.59,17.34,9.19,17.7,10.22s-3.28,10.94-11.94,15.39c-9.1,4.68-15,6.67-18.26,2.39C27.78,128.14,28.16,120.39,27.69,117.19Z"/><path class="cls-3" d="M28,117.61s-.5-6,3.08-7.48,25.1,2.19,25.15,3.14-19.77,14.08-23.83,12.57S28,117.61,28,117.61Z"/><g class="cls-4"><path class="cls-5" d="M38.31,103.43a4.72,4.72,0,0,1-.41,2.21,4.66,4.66,0,0,1-1.33,1.82,5.07,5.07,0,0,1,1.74-4Z"/></g><g class="cls-4"><path class="cls-5" d="M45,104.79a7.31,7.31,0,0,1-1.59,2.37,7.45,7.45,0,0,1-2.32,1.67,8.18,8.18,0,0,1,3.91-4Z"/></g><g class="cls-4"><path class="cls-5" d="M50.1,106.81A3.41,3.41,0,0,1,49,108.39a3.45,3.45,0,0,1-1.77.81,3.46,3.46,0,0,1,1.14-1.58A3.67,3.67,0,0,1,50.1,106.81Z"/></g><g class="cls-4"><path class="cls-5" d="M54.57,108.89a3.42,3.42,0,0,1-1.35,1.39,3.48,3.48,0,0,1-1.87.54,3.42,3.42,0,0,1,1.35-1.39A3.48,3.48,0,0,1,54.57,108.89Z"/></g><g class="cls-4"><path class="cls-5" d="M35,127.4a5,5,0,0,1,2.49,3.6,4.7,4.7,0,0,1-1.66-1.52A4.64,4.64,0,0,1,35,127.4Z"/></g><g class="cls-4"><path class="cls-5" d="M39.8,126a7.14,7.14,0,0,1,2.82.37,7.33,7.33,0,0,1,2.52,1.31,7.12,7.12,0,0,1-2.82-.36A7.27,7.27,0,0,1,39.8,126Z"/></g><g class="cls-4"><path class="cls-5" d="M43.83,123.17a15.61,15.61,0,0,1,4.17-.4,15.13,15.13,0,0,1,4.15.59,17.39,17.39,0,0,1-8.32-.19Z"/></g><g class="cls-4"><path class="cls-5" d="M51.28,119.14a3.12,3.12,0,0,1,1.83-.08,3,3,0,0,1,1.59.88,3,3,0,0,1-1.82.09A3.11,3.11,0,0,1,51.28,119.14Z"/></g><g class="cls-4"><path class="cls-5" d="M55.44,115.91a1.26,1.26,0,0,1,1.93.56,1.26,1.26,0,0,1-1.1.2A1.29,1.29,0,0,1,55.44,115.91Z"/></g><path class="cls-2" d="M110.73,156.2c.83-3.14-.62-6.84,2.4-10.26s8.88-3.33,16.59,2.38c8.95,6.63,12.36,15.25,12.29,16.34-.07.93-7.31,8.79-17,9.48-10.22.74-16.42.25-17.74-5C106.52,166.31,109.91,159.34,110.73,156.2Z"/><path class="cls-6" d="M110.82,156.7s1.88-5.7,5.77-5.68,22.23,11.86,21.9,12.75S114.78,169,111.64,166,110.82,156.7,110.82,156.7Z"/><g class="cls-4"><path class="cls-5" d="M125.9,147.71a5.15,5.15,0,0,1-3.18,3,4.59,4.59,0,0,1,1.24-1.88A4.71,4.71,0,0,1,125.9,147.71Z"/></g><g class="cls-4"><path class="cls-5" d="M131.53,151.59a7.16,7.16,0,0,1-2.4,1.55,7.26,7.26,0,0,1-2.78.63,7.32,7.32,0,0,1,2.4-1.55A7.54,7.54,0,0,1,131.53,151.59Z"/></g><g class="cls-4"><path class="cls-5" d="M135.42,155.45a3.52,3.52,0,0,1-1.67,1,3.38,3.38,0,0,1-1.95.05,3.77,3.77,0,0,1,3.62-1.05Z"/></g><g class="cls-4"><path class="cls-5" d="M138.72,159.11a3.49,3.49,0,0,1-1.79.75,3.45,3.45,0,0,1-1.93-.24,3.43,3.43,0,0,1,1.79-.75A3.56,3.56,0,0,1,138.72,159.11Z"/></g><g class="cls-4"><path class="cls-5" d="M113.41,168.44a4.54,4.54,0,0,1,.93,2,4.65,4.65,0,0,1,0,2.25,4.52,4.52,0,0,1-.93-2A4.61,4.61,0,0,1,113.41,168.44Z"/></g><g class="cls-4"><path class="cls-5" d="M118.43,169a7.38,7.38,0,0,1,2.45,1.44,7.21,7.21,0,0,1,1.8,2.2,7.15,7.15,0,0,1-2.45-1.44A7.36,7.36,0,0,1,118.43,169Z"/></g><g class="cls-4"><path class="cls-5" d="M123.24,168a15.47,15.47,0,0,1,4,1.26,15.76,15.76,0,0,1,3.59,2.17,15.42,15.42,0,0,1-4-1.26A15.92,15.92,0,0,1,123.24,168Z"/></g><g class="cls-4"><path class="cls-5" d="M131.68,167.25a3.35,3.35,0,0,1,2.82,2.08,3.32,3.32,0,0,1-2.82-2.08Z"/></g><g class="cls-4"><path class="cls-5" d="M136.77,165.91a1.29,1.29,0,0,1,1.09.25,1.27,1.27,0,0,1,.46,1,1.29,1.29,0,0,1-1.09-.25A1.27,1.27,0,0,1,136.77,165.91Z"/></g><path class="cls-2" d="M156.08,109.84c2.56-.4,4.81-2.64,8.28-1.52s5.28,5.44,3.56,12.92c-2,8.68-7.22,13.93-8,14.23s-8.78-2.55-12.39-9.45c-3.81-7.25-5.44-12-2-14.58C147.33,110,153.52,110.24,156.08,109.84Z"/><path class="cls-7" d="M155.74,110.07s4.78-.45,6,2.41-1.57,20.08-2.33,20.13-11.4-15.72-10.22-19S155.74,110.07,155.74,110.07Z"/><g class="cls-4"><path class="cls-5" d="M167.15,118.24a3.35,3.35,0,0,1-3.24-1.36,3,3,0,0,1,1.82.22A3.13,3.13,0,0,1,167.15,118.24Z"/></g><g class="cls-4"><path class="cls-5" d="M166.1,123.61a5.31,5.31,0,0,1-3.25-3.1,4.72,4.72,0,0,1,2,1.19A4.88,4.88,0,0,1,166.1,123.61Z"/></g><g class="cls-4"><path class="cls-5" d="M164.53,127.69a2.37,2.37,0,0,1-1.35-.83,2.42,2.42,0,0,1-.59-1.48,2.34,2.34,0,0,1,1.35.84A2.39,2.39,0,0,1,164.53,127.69Z"/></g><g class="cls-4"><path class="cls-5" d="M162.89,131.28a2.52,2.52,0,0,1-1.56-2.56,2.49,2.49,0,0,1,1.56,2.56Z"/></g><g class="cls-4"><path class="cls-5" d="M148,115.72a3.17,3.17,0,0,1-1.15,1.42,3.06,3.06,0,0,1-1.72.59,3,3,0,0,1,1.15-1.41A3.06,3.06,0,0,1,148,115.72Z"/></g><g class="cls-4"><path class="cls-5" d="M149.15,119.58a5.31,5.31,0,0,1-1.31,4.29,5.22,5.22,0,0,1,1.31-4.29Z"/></g><g class="cls-4"><path class="cls-5" d="M151.4,122.79a10.16,10.16,0,0,1,.45,3.34,9.91,9.91,0,0,1-.54,3.32,9.9,9.9,0,0,1-.45-3.34A10.12,10.12,0,0,1,151.4,122.79Z"/></g><g class="cls-4"><path class="cls-5" d="M154.68,128.72a2.19,2.19,0,0,1,.18,1.48,2.15,2.15,0,0,1-.8,1.26,2.08,2.08,0,0,1-.18-1.48A2.15,2.15,0,0,1,154.68,128.72Z"/></g><g class="cls-4"><path class="cls-5" d="M157.29,132a.9.9,0,0,1-.43,1.54.89.89,0,0,1,.43-1.54Z"/></g><path class="cls-2" d="M57.23,80.28c-1.73,2.2-1.86,5.63-5.43,7.3s-8.19-.41-12.33-7.6c-4.82-8.34-4.54-16.35-4.11-17.19s8.82-4.44,16.76-1.65c8.35,2.94,13.1,5.46,12.35,10C64.06,73.72,59,78.07,57.23,80.28Z"/><path class="cls-8" d="M57.34,79.85s-3.46,3.87-6.53,2.51-13.54-17.06-13-17.65,20.58,4.05,22,7.49S57.34,79.85,57.34,79.85Z"/><g class="cls-4"><path class="cls-5" d="M42.29,81.78a3.56,3.56,0,0,1,1.61-1.12,3.52,3.52,0,0,1,2-.18,3.84,3.84,0,0,1-3.56,1.3Z"/></g><g class="cls-4"><path class="cls-5" d="M39.16,76.76a5.69,5.69,0,0,1,2.43-.47,5.48,5.48,0,0,1,2.43.53,5.47,5.47,0,0,1-2.44.47A5.55,5.55,0,0,1,39.16,76.76Z"/></g><g class="cls-4"><path class="cls-5" d="M37.4,72.37a2.64,2.64,0,0,1,1.68-.29,2.72,2.72,0,0,1,1.56.7,2.78,2.78,0,0,1-1.68.29A2.85,2.85,0,0,1,37.4,72.37Z"/></g><g class="cls-4"><path class="cls-5" d="M36.05,68.32a2.76,2.76,0,0,1,1.7,0,2.68,2.68,0,0,1,1.43.93,2.93,2.93,0,0,1-3.13-.89Z"/></g><g class="cls-4"><path class="cls-5" d="M59.33,69.65a3.82,3.82,0,0,1,.78-3.7,3.45,3.45,0,0,1,.1,2A3.64,3.64,0,0,1,59.33,69.65Z"/></g><g class="cls-4"><path class="cls-5" d="M55.55,67.46a6.12,6.12,0,0,1-2.12-4.35,6.12,6.12,0,0,1,2.12,4.35Z"/></g><g class="cls-4"><path class="cls-5" d="M51.4,66.58a11.45,11.45,0,0,1-2.78-2.33,11.64,11.64,0,0,1-2-3,11.69,11.69,0,0,1,2.79,2.33A11.86,11.86,0,0,1,51.4,66.58Z"/></g><g class="cls-4"><path class="cls-5" d="M44.44,64.3a2.36,2.36,0,0,1-1.19-1.06,2.4,2.4,0,0,1-.33-1.56,2.45,2.45,0,0,1,1.19,1.06A2.4,2.4,0,0,1,44.44,64.3Z"/></g><g class="cls-4"><path class="cls-5" d="M39.94,63.61a1.1,1.1,0,0,1-.84-.54,1.05,1.05,0,0,1,0-1,1,1,0,0,1,.79,1.54Z"/></g><path class="cls-2" d="M117.05,60.44c-2.5,0-5,1.76-8.11.15s-4.17-6-1.35-12.84c3.26-7.93,9-12.1,9.88-12.25s7.94,3.8,10.29,10.92c2.47,7.49,3.28,12.21-.36,14.18C125.39,61.68,119.54,60.47,117.05,60.44Z"/><path class="cls-9" d="M117.41,60.28s-4.61-.33-5.33-3.23,4.66-18.84,5.39-18.76,8.35,16.72,6.72,19.63S117.41,60.28,117.41,60.28Z"/><g class="cls-4"><path class="cls-5" d="M107.85,50.72a2.93,2.93,0,0,1,1.7.48,2.83,2.83,0,0,1,1.16,1.33,3.1,3.1,0,0,1-2.86-1.81Z"/></g><g class="cls-4"><path class="cls-5" d="M109.69,45.78a4.61,4.61,0,0,1,1.7,1.43,4.48,4.48,0,0,1,.9,2,4.93,4.93,0,0,1-2.6-3.46Z"/></g><g class="cls-4"><path class="cls-5" d="M111.83,42.15a2.35,2.35,0,0,1,1.47,2.51,2.24,2.24,0,0,1-1.16-1A2.31,2.31,0,0,1,111.83,42.15Z"/></g><g class="cls-4"><path class="cls-5" d="M114,39a2.23,2.23,0,0,1,1,1.15,2.2,2.2,0,0,1,.08,1.53A2.31,2.31,0,0,1,114,39Z"/></g><g class="cls-4"><path class="cls-5" d="M125.68,56.13A3,3,0,0,1,127,55a2.93,2.93,0,0,1,1.74-.28,2.82,2.82,0,0,1-1.3,1.18A2.86,2.86,0,0,1,125.68,56.13Z"/></g><g class="cls-4"><path class="cls-5" d="M125.17,52.28a4.53,4.53,0,0,1,.51-2.16,4.37,4.37,0,0,1,1.41-1.7,4.89,4.89,0,0,1-1.92,3.86Z"/></g><g class="cls-4"><path class="cls-5" d="M123.53,48.87a10.53,10.53,0,0,1,1.14-6.3,9.24,9.24,0,0,1-.08,3.24A9.45,9.45,0,0,1,123.53,48.87Z"/></g><g class="cls-4"><path class="cls-5" d="M121.35,42.72a2,2,0,0,1,.05-1.44,2,2,0,0,1,1-1.06,2.08,2.08,0,0,1-1,2.5Z"/></g><g class="cls-4"><path class="cls-5" d="M119.39,39.17a.9.9,0,0,1-.12-.91.91.91,0,0,1,.78-.48.9.9,0,0,1,.12.91A.91.91,0,0,1,119.39,39.17Z"/></g><path class="cls-10" d="M58.63,126.89c5,1,10,1.84,14.89,2.36a60.18,60.18,0,0,0,14.36.16A19.59,19.59,0,0,0,94,127.63a10.35,10.35,0,0,0,1.22-.73,12.51,12.51,0,0,0,1-.84,7,7,0,0,0,.85-1c.12-.17.26-.31.38-.51l.34-.6a15.85,15.85,0,0,0,1.76-5.73,29.83,29.83,0,0,0,.14-6.63,40.17,40.17,0,0,0-1.09-6.76,37.56,37.56,0,0,0-2.14-6.48,23.24,23.24,0,0,0-3.23-5.49,8.52,8.52,0,0,0-1.88-1.68,2.43,2.43,0,0,0-1.57-.46,2.9,2.9,0,0,0-.88.25l-.25.1a2.62,2.62,0,0,0-.34.21l-.69.44-.71.45c-.22.16-.43.34-.64.51a14.45,14.45,0,0,0-1.27,1A15,15,0,0,0,81.17,99a9.74,9.74,0,0,0-.59,6.36,7.43,7.43,0,0,0,4.88,4.71,12.64,12.64,0,0,1-1.93-.2,7.31,7.31,0,0,1-1.89-.7,7.93,7.93,0,0,1-3.06-2.87A11.85,11.85,0,0,1,77.4,97.9a18.27,18.27,0,0,1,3.73-7.67,15.36,15.36,0,0,1,1.41-1.6c.25-.26.49-.53.75-.77l.8-.69.81-.7a4.06,4.06,0,0,1,.43-.35l.57-.37a8.41,8.41,0,0,1,2.6-1.14A14.94,14.94,0,0,1,90,84.36c.51,0,1,0,1.52,0s1,.18,1.44.29a13.75,13.75,0,0,1,1.32.48A14.29,14.29,0,0,1,98.36,88a27,27,0,0,1,5,7.12A43.79,43.79,0,0,1,107.68,111a36.93,36.93,0,0,1-.31,8.44,22.49,22.49,0,0,1-3.09,8.47l-.68,1a11.83,11.83,0,0,1-.79,1,14.17,14.17,0,0,1-1.8,1.75A17.89,17.89,0,0,1,99,133a19.69,19.69,0,0,1-2.13,1,23.67,23.67,0,0,1-8.53,1.62,50.56,50.56,0,0,1-15.64-2.58,72.05,72.05,0,0,1-7.23-2.72A60.26,60.26,0,0,1,58.63,126.89Z"/><path class="cls-10" d="M119.53,41.56a37.41,37.41,0,0,0-1-5.45,14.48,14.48,0,0,0-2.13-4.79,7,7,0,0,0-3.73-2.72,10,10,0,0,0-4.72,0,21.88,21.88,0,0,0-2.44.63,17.28,17.28,0,0,0-2.34.89,9.84,9.84,0,0,0-3.49,2.75c-1.85,2.32-2.82,5.51-3.36,8.9s-.69,7-1,10.76c-.13,1.88-.25,3.81-.58,5.85a26.45,26.45,0,0,1-.72,3.21,12.62,12.62,0,0,1-1.77,3.64c-.26.32-.53.63-.81.94s-.68.58-1,.86a8.67,8.67,0,0,1-1,.61,7,7,0,0,1-1,.44,19.2,19.2,0,0,1-3.37,1,43.94,43.94,0,0,1-6.08.73,80.09,80.09,0,0,1-11.71-.29,76.16,76.16,0,0,1-11.57-2A47.87,47.87,0,0,1,50,65.53a26,26,0,0,1-5.72-3.12,14.43,14.43,0,0,1-2.71-2.57L41,59a9.57,9.57,0,0,1-.54-.94,8.68,8.68,0,0,1-.83-2.1,11,11,0,0,1-.3-2.3c0-.37.06-.75.1-1.12a6.16,6.16,0,0,1,.16-1c.23-1,.51-2,.83-3a46.76,46.76,0,0,1,5.14-10.79A42,42,0,0,1,49.07,33a27.48,27.48,0,0,1,4.48-4.25A15.42,15.42,0,0,1,56.4,27,9.43,9.43,0,0,1,60,26.11a7.23,7.23,0,0,1,3.88.87,8.83,8.83,0,0,1,2.68,2.49c.28.47.62,1,.83,1.41L68,32.21c.45.87.76,1.84,1.12,2.75A15.54,15.54,0,0,1,70,41a8.47,8.47,0,0,1-2.44,5.53A9.8,9.8,0,0,1,62.4,49a9.6,9.6,0,0,0,4.2-3.31A6.74,6.74,0,0,0,67.75,41a14.37,14.37,0,0,0-1.53-4.81c-.44-.76-.81-1.53-1.33-2.26l-.74-1.09c-.25-.36-.49-.6-.73-.9a4.85,4.85,0,0,0-1.52-1.11,2.8,2.8,0,0,0-1.52-.11,5,5,0,0,0-1.74.74,11.47,11.47,0,0,0-1.79,1.38A32.51,32.51,0,0,0,50.93,41a46,46,0,0,0-3.8,9.58c-.21.82-.38,1.63-.51,2.42a1.17,1.17,0,0,0,0,.38,1.23,1.23,0,0,1,0,.27c.08.15,0,.3.11.44a5,5,0,0,0,2,2.19,28.55,28.55,0,0,0,9,3.51,71.17,71.17,0,0,0,10.4,1.71,74.88,74.88,0,0,0,10.56.37,37.27,37.27,0,0,0,5-.46,12.6,12.6,0,0,0,2-.49,1.23,1.23,0,0,0,.31-.13s.17-.05.17-.07,0,0,0,0a.27.27,0,0,1,.11-.1A5.08,5.08,0,0,0,87,59.23a17.38,17.38,0,0,0,.59-2.2c.32-1.61.58-3.39.8-5.21A99.26,99.26,0,0,1,90.2,40.46a31,31,0,0,1,2-5.81,18,18,0,0,1,3.69-5.37,14.69,14.69,0,0,1,5.64-3.45,21.25,21.25,0,0,1,3-.77c.49-.09,1-.19,1.5-.24a11,11,0,0,1,1.53-.14,13.39,13.39,0,0,1,6.27,1.05,9.19,9.19,0,0,1,4.51,4.46C120.08,34,119.93,37.88,119.53,41.56Z"/><path class="cls-10" d="M119.53,58.84a69,69,0,0,0-3.43-6.62,29.46,29.46,0,0,0-2-3,12.17,12.17,0,0,0-1.16-1.29,3.76,3.76,0,0,0-1.21-.82c-.39-.12-.49-.05-.68.1a4.18,4.18,0,0,0-.83,1,16.53,16.53,0,0,0-1.37,3.13,46.32,46.32,0,0,0-1.65,7,70.41,70.41,0,0,0-.89,7.2,43.63,43.63,0,0,0,0,7,16.84,16.84,0,0,0,.65,3.17c.32,1.09.71,2.21,1.12,3.32.84,2.23,1.82,4.44,2.85,6.6a73.3,73.3,0,0,0,7.32,12.2,38.13,38.13,0,0,0,4.54,5,16.55,16.55,0,0,0,5.07,3.27,7.43,7.43,0,0,0,4.88.25l.31-.08.41-.15.82-.28,1.65-.62c1.1-.43,2.2-.89,3.29-1.37A111.24,111.24,0,0,0,152,97.32a85.26,85.26,0,0,0,11.62-8.24c3.53-3,6.74-6.45,8.5-10.08a10.1,10.1,0,0,0,1.14-5.27,8.1,8.1,0,0,0-.66-2.46l-.27-.61a6.61,6.61,0,0,0-.36-.62l-.38-.62-.44-.57c-2.35-3.07-6.35-5-10.72-5.73A30.1,30.1,0,0,0,147,64a19,19,0,0,0-5.9,2.86A9.55,9.55,0,0,0,139,69a5.65,5.65,0,0,0-.85,2.49c0,.22,0,.44,0,.67s.08.45.11.68a3.66,3.66,0,0,0,.19.76c.09.27.16.55.27.8a14.19,14.19,0,0,0,1.5,3,12,12,0,0,0,5,4.31,11.28,11.28,0,0,0,6.8.81,8.21,8.21,0,0,0,3.24-1.36,5.8,5.8,0,0,0,2.13-2.9,5.78,5.78,0,0,1-1.72,3.37,9.06,9.06,0,0,1-3.32,2.06,13,13,0,0,1-7.89.1,13.91,13.91,0,0,1-6.75-4.52,16.42,16.42,0,0,1-2.26-3.45c-.17-.3-.29-.62-.43-.93a6.46,6.46,0,0,1-.39-1,11.11,11.11,0,0,1-.31-1.13l-.16-1.2a9.25,9.25,0,0,1,1.07-4.64,13.42,13.42,0,0,1,2.76-3.52,23.53,23.53,0,0,1,7.13-4.32,32.52,32.52,0,0,1,7.85-2,33.38,33.38,0,0,1,8.18-.14,27.11,27.11,0,0,1,8.18,2.17,20.62,20.62,0,0,1,7.13,5.31l.73.87.65,1a10.67,10.67,0,0,1,.62,1l.55,1.06a15.24,15.24,0,0,1,1.43,4.68A17.55,17.55,0,0,1,179,82.13a30.4,30.4,0,0,1-4.58,7.17,53,53,0,0,1-5.65,5.75,91,91,0,0,1-12.67,9.12,113.72,113.72,0,0,1-13.78,7c-1.2.5-2.41,1-3.64,1.44l-1.86.66-.95.31-.48.15-.58.16a14.89,14.89,0,0,1-9.75-.67,23.87,23.87,0,0,1-7.31-5,42.31,42.31,0,0,1-5.21-6.26,73.19,73.19,0,0,1-7.36-13.78,76.35,76.35,0,0,1-2.6-7.31c-.37-1.25-.72-2.51-1-3.83a20.36,20.36,0,0,1-.5-4.21,47.81,47.81,0,0,1,.66-7.86,68.08,68.08,0,0,1,1.61-7.53,50.9,50.9,0,0,1,2.61-7.3,18.25,18.25,0,0,1,2-3.51,6,6,0,0,1,1.75-1.61,3,3,0,0,1,1.51-.38,3.23,3.23,0,0,1,1.38.38,5.84,5.84,0,0,1,1.7,1.49,12.57,12.57,0,0,1,1.14,1.66,28.8,28.8,0,0,1,1.69,3.44A56,56,0,0,1,119.53,58.84Z"/><path class="cls-10" d="M71.05,81.69c-5.46-.63-10.87-1.11-16.22-1.23-2.68-.07-5.33,0-7.93.16a42.17,42.17,0,0,0-7.52,1.13,17.34,17.34,0,0,0-6.16,2.74,4.62,4.62,0,0,0-.58.48c-.18.19-.34.28-.56.53l-1.25,1.32a21.38,21.38,0,0,0-2.08,2.75c-2.42,3.8-2.5,7.36-.13,11.13a25.89,25.89,0,0,0,4.5,5.38l1.38,1.26c.24.23.45.39.65.55a5.93,5.93,0,0,0,.62.47,13.94,13.94,0,0,0,2.79,1.54,19.18,19.18,0,0,0,13.3.28,12.08,12.08,0,0,0,2.8-1.44,5,5,0,0,0,1.58-1.84,2.5,2.5,0,0,0,.19-1c0-.19-.06-.37-.07-.58l-.26-.94a30.73,30.73,0,0,0-1.21-3.62,10.62,10.62,0,0,0-4.34-5.54A10.22,10.22,0,0,0,47,94a23.28,23.28,0,0,0-4-.32,14.5,14.5,0,0,1,8.47-.53,10.63,10.63,0,0,1,4,2.25,16,16,0,0,1,2.92,3.49,32.62,32.62,0,0,1,2.09,3.83l.45,1a9.94,9.94,0,0,1,.43,1.4,7.87,7.87,0,0,1,0,3.06,9.72,9.72,0,0,1-2.82,4.89,16.15,16.15,0,0,1-4.11,2.85A24.54,24.54,0,0,1,35.86,117a19.86,19.86,0,0,1-4.45-2.21,11.91,11.91,0,0,1-1-.72c-.34-.26-.67-.51-.94-.74l-1.68-1.43a33.46,33.46,0,0,1-6-7.06,21.85,21.85,0,0,1-2.07-4.6c-.25-.84-.41-1.73-.58-2.59a20.33,20.33,0,0,1-.12-2.7,18,18,0,0,1,3.48-9.6,28.16,28.16,0,0,1,3.05-3.58l1.67-1.54a12.44,12.44,0,0,1,1-.79,10.15,10.15,0,0,1,1.06-.74,19.33,19.33,0,0,1,4.46-2.08,28.48,28.48,0,0,1,4.5-1,40.59,40.59,0,0,1,8.72-.22,62.33,62.33,0,0,1,8.36,1.2,78.11,78.11,0,0,1,8,2.14A66.11,66.11,0,0,1,71.05,81.69Z"/><path class="cls-10" d="M42.92,134.84a24,24,0,0,1,6.65,1.46,48.15,48.15,0,0,1,6.19,3,105.71,105.71,0,0,1,11.32,7.63c7.19,5.5,14,11.33,21.09,16.6A101.75,101.75,0,0,0,99,170.67,35.67,35.67,0,0,0,110.27,175a17.31,17.31,0,0,0,5.47,0l.66-.09.64-.18,1.29-.36c1-.38,2-.71,3-1.13a49.09,49.09,0,0,0,10.88-6,33.67,33.67,0,0,0,8.36-8.53,18.36,18.36,0,0,0,3.42-10.32,12.07,12.07,0,0,0-.35-2.43,9.62,9.62,0,0,0-.92-2.16,8.2,8.2,0,0,0-1.45-1.78,12.64,12.64,0,0,0-2.12-1.56,24.28,24.28,0,0,0-5.39-2.32,36.64,36.64,0,0,0-6-1.3,34.59,34.59,0,0,0-12.28.38,13,13,0,0,0-5.1,2.27,5.64,5.64,0,0,0-1.57,1.86,2.4,2.4,0,0,0-.24.54,3.54,3.54,0,0,0-.19.6,11,11,0,0,0-.28,1.41,13.14,13.14,0,0,0,3.86,11,10.47,10.47,0,0,0,5.34,3,6.81,6.81,0,0,0,3.14-.07,7.26,7.26,0,0,0,2.86-1.59,7,7,0,0,1-2.65,2.17,7.51,7.51,0,0,1-3.48.69,12.07,12.07,0,0,1-6.66-2.57,16,16,0,0,1-6.33-12.92,12.45,12.45,0,0,1,.17-1.92,7.42,7.42,0,0,1,.21-1,6.32,6.32,0,0,1,.34-1,9.85,9.85,0,0,1,2.37-3.53,17.67,17.67,0,0,1,6.71-3.92,31.36,31.36,0,0,1,7.18-1.5,42.49,42.49,0,0,1,7.22-.11,35.74,35.74,0,0,1,14.27,3.73,20.34,20.34,0,0,1,3.4,2.27,15.12,15.12,0,0,1,2.93,3.29,16.92,16.92,0,0,1,1.85,4,19.08,19.08,0,0,1,.78,4.19,22,22,0,0,1-1.07,8,30.29,30.29,0,0,1-3.3,7,41.11,41.11,0,0,1-10.26,10.68,51.52,51.52,0,0,1-6.16,3.86,58.25,58.25,0,0,1-6.53,3c-1.11.45-2.24.8-3.36,1.2l-2,.52-1,.24-1,.13a23.85,23.85,0,0,1-7.92-.22,40.77,40.77,0,0,1-13.55-5.68,93.66,93.66,0,0,1-11.16-8.34c-7-5.94-13.19-12.42-19.69-18.52a122,122,0,0,0-10-8.77C51.05,138.42,47.3,136,42.92,134.84Z"/><path class="cls-2" d="M156.08,54c2.56-.4,4.81-2.65,8.28-1.53s5.28,5.44,3.56,12.92c-2,8.68-7.22,13.93-8,14.23S151.1,77,147.49,70.15c-3.81-7.25-5.44-12-2-14.59C147.33,54.11,153.52,54.37,156.08,54Z"/><path class="cls-11" d="M155.74,54.19s4.78-.44,6,2.41-1.57,20.09-2.33,20.13S148,61,149.19,57.76,155.74,54.19,155.74,54.19Z"/><g class="cls-4"><path class="cls-5" d="M167.15,62.36A3.35,3.35,0,0,1,163.91,61a3.33,3.33,0,0,1,3.24,1.36Z"/></g><g class="cls-4"><path class="cls-5" d="M166.1,67.73a5,5,0,0,1-2-1.18,4.84,4.84,0,0,1-1.28-1.92,5.31,5.31,0,0,1,3.25,3.1Z"/></g><g class="cls-4"><path class="cls-5" d="M164.53,71.82a2.34,2.34,0,0,1-1.35-.84,2.42,2.42,0,0,1-.59-1.48,2.34,2.34,0,0,1,1.35.84A2.42,2.42,0,0,1,164.53,71.82Z"/></g><g class="cls-4"><path class="cls-5" d="M162.89,75.41a2.42,2.42,0,0,1-1.2-1,2.33,2.33,0,0,1-.36-1.54,2.49,2.49,0,0,1,1.56,2.57Z"/></g><g class="cls-4"><path class="cls-5" d="M148,59.85a3.19,3.19,0,0,1-1.15,1.41,3.06,3.06,0,0,1-1.72.6,3.1,3.1,0,0,1,1.15-1.42A3.06,3.06,0,0,1,148,59.85Z"/></g><g class="cls-4"><path class="cls-5" d="M149.15,63.71A5.28,5.28,0,0,1,147.84,68a5.19,5.19,0,0,1,1.31-4.28Z"/></g><g class="cls-4"><path class="cls-5" d="M151.4,66.92a10.06,10.06,0,0,1,.45,3.33,9.83,9.83,0,0,1-.54,3.32,9.81,9.81,0,0,1-.45-3.33A10.08,10.08,0,0,1,151.4,66.92Z"/></g><g class="cls-4"><path class="cls-5" d="M154.68,72.85a2.19,2.19,0,0,1,.18,1.48,2.13,2.13,0,0,1-.8,1.25,2.08,2.08,0,0,1-.18-1.48A2.1,2.1,0,0,1,154.68,72.85Z"/></g><g class="cls-4"><path class="cls-5" d="M157.29,76.15a1,1,0,0,1,.26.91.55.55,0,1,1-1-.27A1,1,0,0,1,157.29,76.15Z"/></g><path class="cls-2" d="M88.2,135.13c.28,2.58,2.41,4.93,1.12,8.35s-5.69,5-13.07,2.93c-8.58-2.42-13.57-7.9-13.82-8.73s3-8.64,10-11.92c7.43-3.44,12.2-4.85,14.67-1.32C88.48,126.38,87.93,132.55,88.2,135.13Z"/><path class="cls-12" d="M88,134.78s.21,4.8-2.7,5.88-20-2.55-20-3.31,16.24-10.62,19.44-9.28S88,134.78,88,134.78Z"/><g class="cls-4"><path class="cls-5" d="M79.28,145.78a3.13,3.13,0,0,1,.31-1.8,3.09,3.09,0,0,1,1.21-1.37,3.35,3.35,0,0,1-1.52,3.17Z"/></g><g class="cls-4"><path class="cls-5" d="M74,144.48a5,5,0,0,1,1.29-1.92,4.81,4.81,0,0,1,2-1.18,4.88,4.88,0,0,1-1.28,1.91A5,5,0,0,1,74,144.48Z"/></g><g class="cls-4"><path class="cls-5" d="M70,142.7a2.54,2.54,0,0,1,2.41-1.82,2.37,2.37,0,0,1-.9,1.31A2.43,2.43,0,0,1,70,142.7Z"/></g><g class="cls-4"><path class="cls-5" d="M66.46,140.89a2.38,2.38,0,0,1,1.08-1.15,2.35,2.35,0,0,1,1.56-.28,2.48,2.48,0,0,1-2.64,1.43Z"/></g><g class="cls-4"><path class="cls-5" d="M82.73,126.74a3.11,3.11,0,0,1-1.36-1.21,3,3,0,0,1-.51-1.75A3,3,0,0,1,82.21,125,3.08,3.08,0,0,1,82.73,126.74Z"/></g><g class="cls-4"><path class="cls-5" d="M78.81,127.73a5.31,5.31,0,0,1-4.21-1.51,5.22,5.22,0,0,1,4.21,1.51Z"/></g><g class="cls-4"><path class="cls-5" d="M75.5,129.83a10.36,10.36,0,0,1-3.35.29,9.81,9.81,0,0,1-3.29-.71,11.3,11.3,0,0,1,6.64.42Z"/></g><g class="cls-4"><path class="cls-5" d="M69.42,132.81a2.21,2.21,0,0,1-2.71-.75,2.06,2.06,0,0,1,1.49-.1A2.18,2.18,0,0,1,69.42,132.81Z"/></g><g class="cls-4"><path class="cls-5" d="M66,135.26a.89.89,0,1,1-.6-.73A1,1,0,0,1,66,135.26Z"/></g><path class="cls-2" d="M100.33,107.89c-2.8-1.64-6.75-1.24-9.23-5.07s-.82-9.45,6.77-15.34c8.8-6.83,18-7.79,19-7.42s6.49,9.4,4.55,18.94c-2,10-4.19,15.88-9.56,15.75C108.93,114.67,103.13,109.53,100.33,107.89Z"/><path class="cls-13" d="M100.84,107.94s-5-3.35-3.91-7.08,17.41-18.22,18.18-17.66-1.38,24.23-5.1,26.46S100.84,107.94,100.84,107.94Z"/><g class="cls-4"><path class="cls-5" d="M96.24,91a4.67,4.67,0,0,1,1.48,1.7,4.75,4.75,0,0,1,.59,2.18,4.61,4.61,0,0,1-1.48-1.71A4.8,4.8,0,0,1,96.24,91Z"/></g><g class="cls-4"><path class="cls-5" d="M101.51,86.62a8.26,8.26,0,0,1,.7,5.58,8.1,8.1,0,0,1-.7-5.58Z"/></g><g class="cls-4"><path class="cls-5" d="M106.27,83.91a3.51,3.51,0,0,1,.51,1.88,3.42,3.42,0,0,1-.48,1.89,3.84,3.84,0,0,1,0-3.77Z"/></g><g class="cls-4"><path class="cls-5" d="M110.69,81.72a3.58,3.58,0,0,1,.23,1.94,3.49,3.49,0,0,1-.75,1.79,3.77,3.77,0,0,1,.52-3.73Z"/></g><g class="cls-4"><path class="cls-5" d="M112.85,108.61a4.54,4.54,0,0,1,2.21-.34,4.7,4.7,0,0,1,2.15.65,4.61,4.61,0,0,1-2.22.35A4.56,4.56,0,0,1,112.85,108.61Z"/></g><g class="cls-4"><path class="cls-5" d="M114.75,103.93a7.26,7.26,0,0,1,2.06-2,7.11,7.11,0,0,1,2.6-1.14,8.09,8.09,0,0,1-4.66,3.11Z"/></g><g class="cls-4"><path class="cls-5" d="M115.11,99a15.5,15.5,0,0,1,2.29-3.51,15.16,15.16,0,0,1,3.06-2.86A17.64,17.64,0,0,1,115.11,99Z"/></g><g class="cls-4"><path class="cls-5" d="M116.62,90.7a3.36,3.36,0,0,1,2.77-2.16,3.32,3.32,0,0,1-2.77,2.16Z"/></g><g class="cls-4"><path class="cls-5" d="M116.7,85.44a1.29,1.29,0,0,1,.54-1,1.26,1.26,0,0,1,1.1-.17,1.24,1.24,0,0,1-.53,1A1.29,1.29,0,0,1,116.7,85.44Z"/></g><path class="cls-2" d="M93.11,39c.28,2.58,2.41,4.93,1.12,8.35s-5.69,5-13.08,2.93c-8.57-2.42-13.56-7.89-13.81-8.73s3-8.64,10-11.92c7.43-3.44,12.2-4.84,14.67-1.32C93.39,30.29,92.84,36.46,93.11,39Z"/><path class="cls-14" d="M92.91,38.69s.21,4.8-2.7,5.88-20-2.55-20-3.31S86.46,30.64,89.66,32,92.91,38.69,92.91,38.69Z"/><g class="cls-4"><path class="cls-5" d="M84.19,49.69a3.13,3.13,0,0,1,.31-1.8,3.09,3.09,0,0,1,1.21-1.37,3.35,3.35,0,0,1-1.52,3.17Z"/></g><g class="cls-4"><path class="cls-5" d="M78.87,48.39a5,5,0,0,1,1.29-1.92,4.81,4.81,0,0,1,2-1.18,4.88,4.88,0,0,1-1.28,1.91A4.93,4.93,0,0,1,78.87,48.39Z"/></g><g class="cls-4"><path class="cls-5" d="M74.87,46.61a2.52,2.52,0,0,1,2.41-1.82,2.37,2.37,0,0,1-.9,1.31A2.45,2.45,0,0,1,74.87,46.61Z"/></g><g class="cls-4"><path class="cls-5" d="M71.37,44.81A2.51,2.51,0,0,1,74,43.37a2.36,2.36,0,0,1-1.08,1.16A2.49,2.49,0,0,1,71.37,44.81Z"/></g><g class="cls-4"><path class="cls-5" d="M87.64,30.65a3.11,3.11,0,0,1-1.36-1.21,3,3,0,0,1-.51-1.75,3.37,3.37,0,0,1,1.87,3Z"/></g><g class="cls-4"><path class="cls-5" d="M83.72,31.64a5.22,5.22,0,0,1-4.21-1.51,5.31,5.31,0,0,1,4.21,1.51Z"/></g><g class="cls-4"><path class="cls-5" d="M80.41,33.74a10.36,10.36,0,0,1-3.35.29,9.81,9.81,0,0,1-3.29-.71A10.34,10.34,0,0,1,77.12,33,10.45,10.45,0,0,1,80.41,33.74Z"/></g><g class="cls-4"><path class="cls-5" d="M74.32,36.73a2.23,2.23,0,0,1-2.7-.76,2.22,2.22,0,0,1,2.7.76Z"/></g><g class="cls-4"><path class="cls-5" d="M70.9,39.17a1,1,0,0,1-.92.22,1,1,0,0,1-.6-.73,1,1,0,0,1,.92-.22A1,1,0,0,1,70.9,39.17Z"/></g></svg>