<svg id="Layer_1" data-name="Layer 1" xmlns="http://www.w3.org/2000/svg" viewBox="0 0 200 200"><defs><style>.cls-1{fill:#d3b588;}.cls-2{fill:#603913;}</style></defs><title>Christmas tool illustration_271118</title><path class="cls-1" d="M24.47,42.68S45.25,18.59,54,13,82,4.48,94.81,3.35s33.57,9.87,51.95,13,36,29.57,37.57,36.76,11.19,64.86,8.79,78.33S166.74,165,160.35,173.76s-39,27.07-52,23.87S48.11,184.14,34.86,173s-20.78-27.28-23.18-41.67-4.79-39.85-2.4-47S24.47,42.68,24.47,42.68Z"/><path class="cls-2" d="M59.37,68.95h0A10.13,10.13,0,0,1,69.53,79.07V86.6A10.13,10.13,0,0,1,59.4,96.72h0A10.13,10.13,0,0,1,49.25,86.6V79.07A10.12,10.12,0,0,1,59.37,68.95Z"/><rect class="cls-2" x="115.99" y="55.06" width="20.28" height="27.77" rx="10.12" ry="10.12" transform="translate(70.58 -63.63) rotate(38.61)"/><rect class="cls-2" x="76.29" y="23.36" width="20.28" height="27.77" rx="10.12" ry="10.12" transform="matrix(0.99, 0.13, -0.13, 0.99, 5.57, -10.91)"/><rect class="cls-2" x="79.88" y="108.68" width="20.28" height="27.77" rx="10.12" ry="10.12" transform="matrix(0.25, -0.97, 0.97, 0.25, -51.4, 178.47)"/><rect class="cls-2" x="137.43" y="114.67" width="20.28" height="27.77" rx="10.12" ry="10.12" transform="translate(77.89 311.45) rotate(-110.21)"/><path class="cls-2" d="M75.76,143h0a10.13,10.13,0,0,1,10.13,10.13v7.52a10.12,10.12,0,0,1-10.12,10.12h0a10.12,10.12,0,0,1-10.12-10.12v-7.52A10.12,10.12,0,0,1,75.76,143Z" transform="translate(-45.32 282.25) rotate(-110.21)"/></svg>