<svg id="Layer_1" data-name="Layer 1" xmlns="http://www.w3.org/2000/svg" viewBox="0 0 200 200"><defs><style>.cls-1{fill:#a7a9ac;}.cls-2{fill:#d1d3d4;}.cls-3{fill:#e6e7e8;}.cls-4{fill:#be1e2d;}.cls-5{fill:#ed1c24;}</style></defs><title>Christmas tool illustration_271118</title><polygon class="cls-1" points="100.39 196.89 6.02 153.76 6.02 46.27 100.39 89.4 100.39 196.89"/><polygon class="cls-2" points="100.39 196.89 194.77 153.76 194.77 46.27 100.39 89.4 100.39 196.89"/><polygon class="cls-3" points="194.77 46.27 100.39 3.14 6.02 46.27 100.39 89.4 194.77 46.27"/><path class="cls-4" d="M92.19,26.6,65.65,7.34a12.9,12.9,0,0,0-20.4,9.1L41.84,49.05A12.89,12.89,0,0,0,59.91,62.17l30-13.35A12.9,12.9,0,0,0,92.19,26.6Z"/><path class="cls-4" d="M102.82,26.94,130,14.84a13.79,13.79,0,0,1,19.32,14l-3.09,29.55a13.78,13.78,0,0,1-21.81,9.72l-24-17.45A13.79,13.79,0,0,1,102.82,26.94Z"/><circle class="cls-5" cx="95.09" cy="37.41" r="13.24"/></svg>